v -0.288675 0.467086 0.000000
v 0.288675 0.467086 0.000000
v -0.288675 -0.467086 0.000000
v 0.288675 -0.467086 0.000000
v 0.000000 -0.288675 0.467086
v 0.000000 0.288675 0.467086
v 0.000000 -0.288675 -0.467086
v 0.000000 0.288675 -0.467086
v 0.467086 0.000000 -0.288675
v 0.467086 0.000000 0.288675
v -0.467086 0.000000 -0.288675
v -0.467086 0.000000 0.288675
v -0.404508 0.250000 0.154508
v -0.250000 0.154508 0.404508
v -0.154508 0.404508 0.250000
v 0.154508 0.404508 0.250000
v 0.000000 0.500000 0.000000
v 0.154508 0.404508 -0.250000
v -0.154508 0.404508 -0.250000
v -0.250000 0.154508 -0.404508
v -0.404508 0.250000 -0.154508
v -0.500000 0.000000 0.000000
v 0.250000 0.154508 0.404508
v 0.404508 0.250000 0.154508
v -0.250000 -0.154508 0.404508
v 0.000000 0.000000 0.500000
v -0.404508 -0.250000 -0.154508
v -0.404508 -0.250000 0.154508
v 0.000000 0.000000 -0.500000
v -0.250000 -0.154508 -0.404508
v 0.404508 0.250000 -0.154508
v 0.250000 0.154508 -0.404508
v 0.404508 -0.250000 0.154508
v 0.250000 -0.154508 0.404508
v 0.154508 -0.404508 0.250000
v -0.154508 -0.404508 0.250000
v 0.000000 -0.500000 0.000000
v -0.154508 -0.404508 -0.250000
v 0.154508 -0.404508 -0.250000
v 0.250000 -0.154508 -0.404508
v 0.404508 -0.250000 -0.154508
v 0.500000 0.000000 0.000000
v -0.343415 0.355256 0.076546
v -0.293893 0.344095 0.212663
v -0.219561 0.431802 0.123854
v -0.355256 0.076546 0.343415
v -0.344095 0.212663 0.293893
v -0.431802 0.123854 0.219561
v -0.076546 0.343415 0.355256
v -0.212663 0.293893 0.344095
v -0.123854 0.219561 0.431802
v -0.081230 0.475528 0.131433
v -0.143014 0.479110 0.000000
v 0.076546 0.343415 0.355256
v 0.000000 0.425325 0.262866
v 0.143014 0.479110 0.000000
v 0.081230 0.475528 0.131433
v 0.219561 0.431802 0.123854
v -0.081230 0.475528 -0.131433
v -0.219561 0.431802 -0.123854
v 0.219561 0.431802 -0.123854
v 0.081230 0.475528 -0.131433
v -0.076546 0.343415 -0.355256
v 0.000000 0.425325 -0.262866
v 0.076546 0.343415 -0.355256
v -0.293893 0.344095 -0.212663
v -0.343415 0.355256 -0.076546
v -0.123854 0.219561 -0.431802
v -0.212663 0.293893 -0.344095
v -0.431802 0.123854 -0.219561
v -0.344095 0.212663 -0.293893
v -0.355256 0.076546 -0.343415
v -0.425325 0.262866 0.000000
v -0.479110 0.000000 -0.143014
v -0.475528 0.131433 -0.081230
v -0.475528 0.131433 0.081230
v -0.479110 0.000000 0.143014
v 0.293893 0.344095 0.212663
v 0.343415 0.355256 0.076546
v 0.123854 0.219561 0.431802
v 0.212663 0.293893 0.344095
v 0.431802 0.123854 0.219561
v 0.344095 0.212663 0.293893
v 0.355256 0.076546 0.343415
v -0.131433 0.081230 0.475528
v 0.000000 0.143014 0.479110
v -0.355256 -0.076546 0.343415
v -0.262866 0.000000 0.425325
v 0.000000 -0.143014 0.479110
v -0.131433 -0.081230 0.475528
v -0.123854 -0.219561 0.431802
v -0.475528 -0.131433 0.081230
v -0.431802 -0.123854 0.219561
v -0.431802 -0.123854 -0.219561
v -0.475528 -0.131433 -0.081230
v -0.343415 -0.355256 0.076546
v -0.425325 -0.262866 0.000000
v -0.343415 -0.355256 -0.076546
v -0.262866 0.000000 -0.425325
v -0.355256 -0.076546 -0.343415
v 0.000000 0.143014 -0.479110
v -0.131433 0.081230 -0.475528
v -0.123854 -0.219561 -0.431802
v -0.131433 -0.081230 -0.475528
v 0.000000 -0.143014 -0.479110
v 0.212663 0.293893 -0.344095
v 0.123854 0.219561 -0.431802
v 0.343415 0.355256 -0.076546
v 0.293893 0.344095 -0.212663
v 0.355256 0.076546 -0.343415
v 0.344095 0.212663 -0.293893
v 0.431802 0.123854 -0.219561
v 0.343415 -0.355256 0.076546
v 0.293893 -0.344095 0.212663
v 0.219561 -0.431802 0.123854
v 0.355256 -0.076546 0.343415
v 0.344095 -0.212663 0.293893
v 0.431802 -0.123854 0.219561
v 0.076546 -0.343415 0.355256
v 0.212663 -0.293893 0.344095
v 0.123854 -0.219561 0.431802
v 0.081230 -0.475528 0.131433
v 0.143014 -0.479110 0.000000
v -0.076546 -0.343415 0.355256
v 0.000000 -0.425325 0.262866
v -0.143014 -0.479110 0.000000
v -0.081230 -0.475528 0.131433
v -0.219561 -0.431802 0.123854
v 0.081230 -0.475528 -0.131433
v 0.219561 -0.431802 -0.123854
v -0.219561 -0.431802 -0.123854
v -0.081230 -0.475528 -0.131433
v 0.076546 -0.343415 -0.355256
v 0.000000 -0.425325 -0.262866
v -0.076546 -0.343415 -0.355256
v 0.293893 -0.344095 -0.212663
v 0.343415 -0.355256 -0.076546
v 0.123854 -0.219561 -0.431802
v 0.212663 -0.293893 -0.344095
v 0.431802 -0.123854 -0.219561
v 0.344095 -0.212663 -0.293893
v 0.355256 -0.076546 -0.343415
v 0.425325 -0.262866 0.000000
v 0.479110 0.000000 -0.143014
v 0.475528 -0.131433 -0.081230
v 0.475528 -0.131433 0.081230
v 0.479110 0.000000 0.143014
v 0.131433 -0.081230 0.475528
v 0.262866 0.000000 0.425325
v 0.131433 0.081230 0.475528
v -0.293893 -0.344095 0.212663
v -0.212663 -0.293893 0.344095
v -0.344095 -0.212663 0.293893
v -0.212663 -0.293893 -0.344095
v -0.293893 -0.344095 -0.212663
v -0.344095 -0.212663 -0.293893
v 0.262866 0.000000 -0.425325
v 0.131433 -0.081230 -0.475528
v 0.131433 0.081230 -0.475528
v 0.475528 0.131433 0.081230
v 0.475528 0.131433 -0.081230
v 0.425325 0.262866 0.000000
v -0.303883 0.395349 0.036800
v -0.284845 0.398224 0.101395
v -0.244339 0.432149 0.059544
v -0.353553 0.300750 0.185874
v -0.322070 0.353425 0.146155
v -0.377930 0.305839 0.116753
v -0.189019 0.422593 0.188911
v -0.259479 0.392109 0.170063
v -0.226995 0.378968 0.234215
v -0.395349 0.036800 0.303883
v -0.398224 0.101395 0.284845
v -0.432149 0.059544 0.244339
v -0.300750 0.185874 0.353553
v -0.353425 0.146155 0.322070
v -0.305839 0.116753 0.377930
v -0.422593 0.188911 0.189019
v -0.392109 0.170063 0.259479
v -0.378968 0.234215 0.226995
v -0.036800 0.303883 0.395349
v -0.101395 0.284845 0.398224
v -0.059544 0.244339 0.432149
v -0.185874 0.353553 0.300750
v -0.146155 0.322070 0.353425
v -0.116753 0.377930 0.305839
v -0.188911 0.189019 0.422593
v -0.170063 0.259479 0.392109
v -0.234215 0.226995 0.378968
v -0.323289 0.282127 0.256688
v -0.282127 0.256688 0.323289
v -0.256688 0.323289 0.282127
v -0.183450 0.460889 0.062666
v -0.207539 0.454893 0.000000
v -0.119338 0.445503 0.193094
v -0.152008 0.458530 0.129012
v -0.072266 0.494750 0.000000
v -0.113324 0.482437 0.066421
v -0.041121 0.493844 0.066536
v 0.036800 0.303883 0.395349
v 0.000000 0.347511 0.359494
v 0.078217 0.420089 0.259629
v 0.038683 0.388491 0.312375
v 0.116753 0.377930 0.305839
v -0.038683 0.388491 0.312375
v -0.078217 0.420089 0.259629
v 0.207539 0.454893 0.000000
v 0.183450 0.460889 0.062666
v 0.244339 0.432149 0.059544
v 0.041121 0.493844 0.066536
v 0.113324 0.482437 0.066421
v 0.072266 0.494750 0.000000
v 0.189019 0.422593 0.188911
v 0.152008 0.458530 0.129012
v 0.119338 0.445503 0.193094
v -0.041162 0.456491 0.199804
v 0.041162 0.456491 0.199804
v 0.000000 0.481931 0.133202
v -0.183450 0.460889 -0.062666
v -0.244339 0.432149 -0.059544
v -0.041121 0.493844 -0.066536
v -0.113324 0.482437 -0.066421
v -0.189019 0.422593 -0.188911
v -0.152008 0.458530 -0.129012
v -0.119338 0.445503 -0.193094
v 0.244339 0.432149 -0.059544
v 0.183450 0.460889 -0.062666
v 0.119338 0.445503 -0.193094
v 0.152008 0.458530 -0.129012
v 0.189019 0.422593 -0.188911
v 0.113324 0.482437 -0.066421
v 0.041121 0.493844 -0.066536
v -0.036800 0.303883 -0.395349
v 0.000000 0.347511 -0.359494
v 0.036800 0.303883 -0.395349
v -0.078217 0.420089 -0.259629
v -0.038683 0.388491 -0.312375
v -0.116753 0.377930 -0.305839
v 0.116753 0.377930 -0.305839
v 0.038683 0.388491 -0.312375
v 0.078217 0.420089 -0.259629
v 0.000000 0.481931 -0.133202
v 0.041162 0.456491 -0.199804
v -0.041162 0.456491 -0.199804
v -0.284845 0.398224 -0.101395
v -0.303883 0.395349 -0.036800
v -0.226995 0.378968 -0.234215
v -0.259479 0.392109 -0.170063
v -0.377930 0.305839 -0.116753
v -0.322070 0.353425 -0.146155
v -0.353553 0.300750 -0.185874
v -0.059544 0.244339 -0.432149
v -0.101395 0.284845 -0.398224
v -0.234215 0.226995 -0.378968
v -0.170063 0.259479 -0.392109
v -0.188911 0.189019 -0.422593
v -0.146155 0.322070 -0.353425
v -0.185874 0.353553 -0.300750
v -0.432149 0.059544 -0.244339
v -0.398224 0.101395 -0.284845
v -0.395349 0.036800 -0.303883
v -0.378968 0.234215 -0.226995
v -0.392109 0.170063 -0.259479
v -0.422593 0.188911 -0.189019
v -0.305839 0.116753 -0.377930
v -0.353425 0.146155 -0.322070
v -0.300750 0.185874 -0.353553
v -0.256688 0.323289 -0.282127
v -0.282127 0.256688 -0.323289
v -0.323289 0.282127 -0.256688
v -0.347511 0.359494 0.000000
v -0.420089 0.259629 -0.078217
v -0.388491 0.312375 -0.038683
v -0.388491 0.312375 0.038683
v -0.420089 0.259629 0.078217
v -0.454893 0.000000 -0.207539
v -0.460889 0.062666 -0.183450
v -0.493844 0.066536 -0.041121
v -0.482437 0.066421 -0.113324
v -0.494750 0.000000 -0.072266
v -0.458530 0.129012 -0.152008
v -0.445503 0.193094 -0.119338
v -0.460889 0.062666 0.183450
v -0.454893 0.000000 0.207539
v -0.445503 0.193094 0.119338
v -0.458530 0.129012 0.152008
v -0.494750 0.000000 0.072266
v -0.482437 0.066421 0.113324
v -0.493844 0.066536 0.041121
v -0.456491 0.199804 -0.041162
v -0.481931 0.133202 0.000000
v -0.456491 0.199804 0.041162
v 0.284845 0.398224 0.101395
v 0.303883 0.395349 0.036800
v 0.226995 0.378968 0.234215
v 0.259479 0.392109 0.170063
v 0.377930 0.305839 0.116753
v 0.322070 0.353425 0.146155
v 0.353553 0.300750 0.185874
v 0.059544 0.244339 0.432149
v 0.101395 0.284845 0.398224
v 0.234215 0.226995 0.378968
v 0.170063 0.259479 0.392109
v 0.188911 0.189019 0.422593
v 0.146155 0.322070 0.353425
v 0.185874 0.353553 0.300750
v 0.432149 0.059544 0.244339
v 0.398224 0.101395 0.284845
v 0.395349 0.036800 0.303883
v 0.378968 0.234215 0.226995
v 0.392109 0.170063 0.259479
v 0.422593 0.188911 0.189019
v 0.305839 0.116753 0.377930
v 0.353425 0.146155 0.322070
v 0.300750 0.185874 0.353553
v 0.256688 0.323289 0.282127
v 0.282127 0.256688 0.323289
v 0.323289 0.282127 0.256688
v -0.062666 0.183450 0.460889
v 0.000000 0.207539 0.454893
v -0.193094 0.119338 0.445503
v -0.129012 0.152008 0.458530
v 0.000000 0.072266 0.494750
v -0.066421 0.113324 0.482437
v -0.066536 0.041121 0.493844
v -0.395349 -0.036800 0.303883
v -0.359494 0.000000 0.347511
v -0.259629 -0.078217 0.420089
v -0.312375 -0.038683 0.388491
v -0.305839 -0.116753 0.377930
v -0.312375 0.038683 0.388491
v -0.259629 0.078217 0.420089
v 0.000000 -0.207539 0.454893
v -0.062666 -0.183450 0.460889
v -0.059544 -0.244339 0.432149
v -0.066536 -0.041121 0.493844
v -0.066421 -0.113324 0.482437
v 0.000000 -0.072266 0.494750
v -0.188911 -0.189019 0.422593
v -0.129012 -0.152008 0.458530
v -0.193094 -0.119338 0.445503
v -0.199804 0.041162 0.456491
v -0.199804 -0.041162 0.456491
v -0.133202 0.000000 0.481931
v -0.460889 -0.062666 0.183450
v -0.432149 -0.059544 0.244339
v -0.493844 -0.066536 0.041121
v -0.482437 -0.066421 0.113324
v -0.422593 -0.188911 0.189019
v -0.458530 -0.129012 0.152008
v -0.445503 -0.193094 0.119338
v -0.432149 -0.059544 -0.244339
v -0.460889 -0.062666 -0.183450
v -0.445503 -0.193094 -0.119338
v -0.458530 -0.129012 -0.152008
v -0.422593 -0.188911 -0.189019
v -0.482437 -0.066421 -0.113324
v -0.493844 -0.066536 -0.041121
v -0.303883 -0.395349 0.036800
v -0.347511 -0.359494 0.000000
v -0.303883 -0.395349 -0.036800
v -0.420089 -0.259629 0.078217
v -0.388491 -0.312375 0.038683
v -0.377930 -0.305839 0.116753
v -0.377930 -0.305839 -0.116753
v -0.388491 -0.312375 -0.038683
v -0.420089 -0.259629 -0.078217
v -0.481931 -0.133202 0.000000
v -0.456491 -0.199804 -0.041162
v -0.456491 -0.199804 0.041162
v -0.359494 0.000000 -0.347511
v -0.395349 -0.036800 -0.303883
v -0.259629 0.078217 -0.420089
v -0.312375 0.038683 -0.388491
v -0.305839 -0.116753 -0.377930
v -0.312375 -0.038683 -0.388491
v -0.259629 -0.078217 -0.420089
v 0.000000 0.207539 -0.454893
v -0.062666 0.183450 -0.460889
v -0.066536 0.041121 -0.493844
v -0.066421 0.113324 -0.482437
v 0.000000 0.072266 -0.494750
v -0.129012 0.152008 -0.458530
v -0.193094 0.119338 -0.445503
v -0.059544 -0.244339 -0.432149
v -0.062666 -0.183450 -0.460889
v 0.000000 -0.207539 -0.454893
v -0.193094 -0.119338 -0.445503
v -0.129012 -0.152008 -0.458530
v -0.188911 -0.189019 -0.422593
v 0.000000 -0.072266 -0.494750
v -0.066421 -0.113324 -0.482437
v -0.066536 -0.041121 -0.493844
v -0.199804 0.041162 -0.456491
v -0.133202 0.000000 -0.481931
v -0.199804 -0.041162 -0.456491
v 0.101395 0.284845 -0.398224
v 0.059544 0.244339 -0.432149
v 0.185874 0.353553 -0.300750
v 0.146155 0.322070 -0.353425
v 0.188911 0.189019 -0.422593
v 0.170063 0.259479 -0.392109
v 0.234215 0.226995 -0.378968
v 0.303883 0.395349 -0.036800
v 0.284845 0.398224 -0.101395
v 0.353553 0.300750 -0.185874
v 0.322070 0.353425 -0.146155
v 0.377930 0.305839 -0.116753
v 0.259479 0.392109 -0.170063
v 0.226995 0.378968 -0.234215
v 0.395349 0.036800 -0.303883
v 0.398224 0.101395 -0.284845
v 0.432149 0.059544 -0.244339
v 0.300750 0.185874 -0.353553
v 0.353425 0.146155 -0.322070
v 0.305839 0.116753 -0.377930
v 0.422593 0.188911 -0.189019
v 0.392109 0.170063 -0.259479
v 0.378968 0.234215 -0.226995
v 0.256688 0.323289 -0.282127
v 0.323289 0.282127 -0.256688
v 0.282127 0.256688 -0.323289
v 0.303883 -0.395349 0.036800
v 0.284845 -0.398224 0.101395
v 0.244339 -0.432149 0.059544
v 0.353553 -0.300750 0.185874
v 0.322070 -0.353425 0.146155
v 0.377930 -0.305839 0.116753
v 0.189019 -0.422593 0.188911
v 0.259479 -0.392109 0.170063
v 0.226995 -0.378968 0.234215
v 0.395349 -0.036800 0.303883
v 0.398224 -0.101395 0.284845
v 0.432149 -0.059544 0.244339
v 0.300750 -0.185874 0.353553
v 0.353425 -0.146155 0.322070
v 0.305839 -0.116753 0.377930
v 0.422593 -0.188911 0.189019
v 0.392109 -0.170063 0.259479
v 0.378968 -0.234215 0.226995
v 0.036800 -0.303883 0.395349
v 0.101395 -0.284845 0.398224
v 0.059544 -0.244339 0.432149
v 0.185874 -0.353553 0.300750
v 0.146155 -0.322070 0.353425
v 0.116753 -0.377930 0.305839
v 0.188911 -0.189019 0.422593
v 0.170063 -0.259479 0.392109
v 0.234215 -0.226995 0.378968
v 0.323289 -0.282127 0.256688
v 0.282127 -0.256688 0.323289
v 0.256688 -0.323289 0.282127
v 0.183450 -0.460889 0.062666
v 0.207539 -0.454893 0.000000
v 0.119338 -0.445503 0.193094
v 0.152008 -0.458530 0.129012
v 0.072266 -0.494750 0.000000
v 0.113324 -0.482437 0.066421
v 0.041121 -0.493844 0.066536
v -0.036800 -0.303883 0.395349
v 0.000000 -0.347511 0.359494
v -0.078217 -0.420089 0.259629
v -0.038683 -0.388491 0.312375
v -0.116753 -0.377930 0.305839
v 0.038683 -0.388491 0.312375
v 0.078217 -0.420089 0.259629
v -0.207539 -0.454893 0.000000
v -0.183450 -0.460889 0.062666
v -0.244339 -0.432149 0.059544
v -0.041121 -0.493844 0.066536
v -0.113324 -0.482437 0.066421
v -0.072266 -0.494750 0.000000
v -0.189019 -0.422593 0.188911
v -0.152008 -0.458530 0.129012
v -0.119338 -0.445503 0.193094
v 0.041162 -0.456491 0.199804
v -0.041162 -0.456491 0.199804
v 0.000000 -0.481931 0.133202
v 0.183450 -0.460889 -0.062666
v 0.244339 -0.432149 -0.059544
v 0.041121 -0.493844 -0.066536
v 0.113324 -0.482437 -0.066421
v 0.189019 -0.422593 -0.188911
v 0.152008 -0.458530 -0.129012
v 0.119338 -0.445503 -0.193094
v -0.244339 -0.432149 -0.059544
v -0.183450 -0.460889 -0.062666
v -0.119338 -0.445503 -0.193094
v -0.152008 -0.458530 -0.129012
v -0.189019 -0.422593 -0.188911
v -0.113324 -0.482437 -0.066421
v -0.041121 -0.493844 -0.066536
v 0.036800 -0.303883 -0.395349
v 0.000000 -0.347511 -0.359494
v -0.036800 -0.303883 -0.395349
v 0.078217 -0.420089 -0.259629
v 0.038683 -0.388491 -0.312375
v 0.116753 -0.377930 -0.305839
v -0.116753 -0.377930 -0.305839
v -0.038683 -0.388491 -0.312375
v -0.078217 -0.420089 -0.259629
v 0.000000 -0.481931 -0.133202
v -0.041162 -0.456491 -0.199804
v 0.041162 -0.456491 -0.199804
v 0.284845 -0.398224 -0.101395
v 0.303883 -0.395349 -0.036800
v 0.226995 -0.378968 -0.234215
v 0.259479 -0.392109 -0.170063
v 0.377930 -0.305839 -0.116753
v 0.322070 -0.353425 -0.146155
v 0.353553 -0.300750 -0.185874
v 0.059544 -0.244339 -0.432149
v 0.101395 -0.284845 -0.398224
v 0.234215 -0.226995 -0.378968
v 0.170063 -0.259479 -0.392109
v 0.188911 -0.189019 -0.422593
v 0.146155 -0.322070 -0.353425
v 0.185874 -0.353553 -0.300750
v 0.432149 -0.059544 -0.244339
v 0.398224 -0.101395 -0.284845
v 0.395349 -0.036800 -0.303883
v 0.378968 -0.234215 -0.226995
v 0.392109 -0.170063 -0.259479
v 0.422593 -0.188911 -0.189019
v 0.305839 -0.116753 -0.377930
v 0.353425 -0.146155 -0.322070
v 0.300750 -0.185874 -0.353553
v 0.256688 -0.323289 -0.282127
v 0.282127 -0.256688 -0.323289
v 0.323289 -0.282127 -0.256688
v 0.347511 -0.359494 0.000000
v 0.420089 -0.259629 -0.078217
v 0.388491 -0.312375 -0.038683
v 0.388491 -0.312375 0.038683
v 0.420089 -0.259629 0.078217
v 0.454893 0.000000 -0.207539
v 0.460889 -0.062666 -0.183450
v 0.493844 -0.066536 -0.041121
v 0.482437 -0.066421 -0.113324
v 0.494750 0.000000 -0.072266
v 0.458530 -0.129012 -0.152008
v 0.445503 -0.193094 -0.119338
v 0.460889 -0.062666 0.183450
v 0.454893 0.000000 0.207539
v 0.445503 -0.193094 0.119338
v 0.458530 -0.129012 0.152008
v 0.494750 0.000000 0.072266
v 0.482437 -0.066421 0.113324
v 0.493844 -0.066536 0.041121
v 0.456491 -0.199804 -0.041162
v 0.481931 -0.133202 0.000000
v 0.456491 -0.199804 0.041162
v 0.062666 -0.183450 0.460889
v 0.193094 -0.119338 0.445503
v 0.129012 -0.152008 0.458530
v 0.066421 -0.113324 0.482437
v 0.066536 -0.041121 0.493844
v 0.359494 0.000000 0.347511
v 0.259629 0.078217 0.420089
v 0.312375 0.038683 0.388491
v 0.312375 -0.038683 0.388491
v 0.259629 -0.078217 0.420089
v 0.062666 0.183450 0.460889
v 0.066536 0.041121 0.493844
v 0.066421 0.113324 0.482437
v 0.129012 0.152008 0.458530
v 0.193094 0.119338 0.445503
v 0.199804 -0.041162 0.456491
v 0.199804 0.041162 0.456491
v 0.133202 0.000000 0.481931
v -0.284845 -0.398224 0.101395
v -0.226995 -0.378968 0.234215
v -0.259479 -0.392109 0.170063
v -0.322070 -0.353425 0.146155
v -0.353553 -0.300750 0.185874
v -0.101395 -0.284845 0.398224
v -0.234215 -0.226995 0.378968
v -0.170063 -0.259479 0.392109
v -0.146155 -0.322070 0.353425
v -0.185874 -0.353553 0.300750
v -0.398224 -0.101395 0.284845
v -0.378968 -0.234215 0.226995
v -0.392109 -0.170063 0.259479
v -0.353425 -0.146155 0.322070
v -0.300750 -0.185874 0.353553
v -0.256688 -0.323289 0.282127
v -0.282127 -0.256688 0.323289
v -0.323289 -0.282127 0.256688
v -0.101395 -0.284845 -0.398224
v -0.185874 -0.353553 -0.300750
v -0.146155 -0.322070 -0.353425
v -0.170063 -0.259479 -0.392109
v -0.234215 -0.226995 -0.378968
v -0.284845 -0.398224 -0.101395
v -0.353553 -0.300750 -0.185874
v -0.322070 -0.353425 -0.146155
v -0.259479 -0.392109 -0.170063
v -0.226995 -0.378968 -0.234215
v -0.398224 -0.101395 -0.284845
v -0.300750 -0.185874 -0.353553
v -0.353425 -0.146155 -0.322070
v -0.392109 -0.170063 -0.259479
v -0.378968 -0.234215 -0.226995
v -0.256688 -0.323289 -0.282127
v -0.323289 -0.282127 -0.256688
v -0.282127 -0.256688 -0.323289
v 0.359494 0.000000 -0.347511
v 0.259629 -0.078217 -0.420089
v 0.312375 -0.038683 -0.388491
v 0.312375 0.038683 -0.388491
v 0.259629 0.078217 -0.420089
v 0.062666 -0.183450 -0.460889
v 0.066536 -0.041121 -0.493844
v 0.066421 -0.113324 -0.482437
v 0.129012 -0.152008 -0.458530
v 0.193094 -0.119338 -0.445503
v 0.062666 0.183450 -0.460889
v 0.193094 0.119338 -0.445503
v 0.129012 0.152008 -0.458530
v 0.066421 0.113324 -0.482437
v 0.066536 0.041121 -0.493844
v 0.199804 -0.041162 -0.456491
v 0.133202 0.000000 -0.481931
v 0.199804 0.041162 -0.456491
v 0.460889 0.062666 0.183450
v 0.493844 0.066536 0.041121
v 0.482437 0.066421 0.113324
v 0.458530 0.129012 0.152008
v 0.445503 0.193094 0.119338
v 0.460889 0.062666 -0.183450
v 0.445503 0.193094 -0.119338
v 0.458530 0.129012 -0.152008
v 0.482437 0.066421 -0.113324
v 0.493844 0.066536 -0.041121
v 0.347511 0.359494 0.000000
v 0.420089 0.259629 0.078217
v 0.388491 0.312375 0.038683
v 0.388491 0.312375 -0.038683
v 0.420089 0.259629 -0.078217
v 0.481931 0.133202 0.000000
v 0.456491 0.199804 -0.041162
v 0.456491 0.199804 0.041162
vn -0.525731 0.850651 0.000000
vn 0.525731 0.850651 0.000000
vn -0.525731 -0.850651 0.000000
vn 0.525731 -0.850651 0.000000
vn 0.000000 -0.525731 0.850651
vn 0.000000 0.525731 0.850651
vn 0.000000 -0.525731 -0.850651
vn 0.000000 0.525731 -0.850651
vn 0.850651 0.000000 -0.525731
vn 0.850651 0.000000 0.525731
vn -0.850651 0.000000 -0.525731
vn -0.850651 0.000000 0.525731
vn -0.809017 0.500000 0.309017
vn -0.500000 0.309017 0.809017
vn -0.309017 0.809017 0.500000
vn 0.309017 0.809017 0.500000
vn 0.000000 1.000000 0.000000
vn 0.309017 0.809017 -0.500000
vn -0.309017 0.809017 -0.500000
vn -0.500000 0.309017 -0.809017
vn -0.809017 0.500000 -0.309017
vn -1.000000 0.000000 0.000000
vn 0.500000 0.309017 0.809017
vn 0.809017 0.500000 0.309017
vn -0.500000 -0.309017 0.809017
vn 0.000000 0.000000 1.000000
vn -0.809017 -0.500000 -0.309017
vn -0.809017 -0.500000 0.309017
vn 0.000000 0.000000 -1.000000
vn -0.500000 -0.309017 -0.809017
vn 0.809017 0.500000 -0.309017
vn 0.500000 0.309017 -0.809017
vn 0.809017 -0.500000 0.309017
vn 0.500000 -0.309017 0.809017
vn 0.309017 -0.809017 0.500000
vn -0.309017 -0.809017 0.500000
vn 0.000000 -1.000000 0.000000
vn -0.309017 -0.809017 -0.500000
vn 0.309017 -0.809017 -0.500000
vn 0.500000 -0.309017 -0.809017
vn 0.809017 -0.500000 -0.309017
vn 1.000000 0.000000 0.000000
vn -0.686829 0.710513 0.153092
vn -0.587785 0.688191 0.425325
vn -0.439121 0.863605 0.247708
vn -0.710513 0.153092 0.686829
vn -0.688191 0.425325 0.587785
vn -0.863605 0.247708 0.439121
vn -0.153092 0.686829 0.710513
vn -0.425325 0.587785 0.688191
vn -0.247708 0.439121 0.863605
vn -0.162460 0.951057 0.262866
vn -0.286029 0.958221 0.000000
vn 0.153092 0.686829 0.710513
vn 0.000000 0.850651 0.525731
vn 0.286029 0.958221 0.000000
vn 0.162460 0.951057 0.262866
vn 0.439121 0.863605 0.247708
vn -0.162460 0.951057 -0.262866
vn -0.439121 0.863605 -0.247708
vn 0.439121 0.863605 -0.247708
vn 0.162460 0.951057 -0.262866
vn -0.153092 0.686829 -0.710513
vn 0.000000 0.850651 -0.525731
vn 0.153092 0.686829 -0.710513
vn -0.587785 0.688191 -0.425325
vn -0.686829 0.710513 -0.153092
vn -0.247708 0.439121 -0.863605
vn -0.425325 0.587785 -0.688191
vn -0.863605 0.247708 -0.439121
vn -0.688191 0.425325 -0.587785
vn -0.710513 0.153092 -0.686829
vn -0.850651 0.525731 0.000000
vn -0.958221 0.000000 -0.286029
vn -0.951057 0.262866 -0.162460
vn -0.951057 0.262866 0.162460
vn -0.958221 0.000000 0.286029
vn 0.587785 0.688191 0.425325
vn 0.686829 0.710513 0.153092
vn 0.247708 0.439121 0.863605
vn 0.425325 0.587785 0.688191
vn 0.863605 0.247708 0.439121
vn 0.688191 0.425325 0.587785
vn 0.710513 0.153092 0.686829
vn -0.262866 0.162460 0.951057
vn 0.000000 0.286029 0.958221
vn -0.710513 -0.153092 0.686829
vn -0.525731 0.000000 0.850651
vn 0.000000 -0.286029 0.958221
vn -0.262866 -0.162460 0.951057
vn -0.247708 -0.439121 0.863605
vn -0.951057 -0.262866 0.162460
vn -0.863605 -0.247708 0.439121
vn -0.863605 -0.247708 -0.439121
vn -0.951057 -0.262866 -0.162460
vn -0.686829 -0.710513 0.153092
vn -0.850651 -0.525731 0.000000
vn -0.686829 -0.710513 -0.153092
vn -0.525731 0.000000 -0.850651
vn -0.710513 -0.153092 -0.686829
vn 0.000000 0.286029 -0.958221
vn -0.262866 0.162460 -0.951057
vn -0.247708 -0.439121 -0.863605
vn -0.262866 -0.162460 -0.951057
vn 0.000000 -0.286029 -0.958221
vn 0.425325 0.587785 -0.688191
vn 0.247708 0.439121 -0.863605
vn 0.686829 0.710513 -0.153092
vn 0.587785 0.688191 -0.425325
vn 0.710513 0.153092 -0.686829
vn 0.688191 0.425325 -0.587785
vn 0.863605 0.247708 -0.439121
vn 0.686829 -0.710513 0.153092
vn 0.587785 -0.688191 0.425325
vn 0.439121 -0.863605 0.247708
vn 0.710513 -0.153092 0.686829
vn 0.688191 -0.425325 0.587785
vn 0.863605 -0.247708 0.439121
vn 0.153092 -0.686829 0.710513
vn 0.425325 -0.587785 0.688191
vn 0.247708 -0.439121 0.863605
vn 0.162460 -0.951057 0.262866
vn 0.286029 -0.958221 0.000000
vn -0.153092 -0.686829 0.710513
vn 0.000000 -0.850651 0.525731
vn -0.286029 -0.958221 0.000000
vn -0.162460 -0.951057 0.262866
vn -0.439121 -0.863605 0.247708
vn 0.162460 -0.951057 -0.262866
vn 0.439121 -0.863605 -0.247708
vn -0.439121 -0.863605 -0.247708
vn -0.162460 -0.951057 -0.262866
vn 0.153092 -0.686829 -0.710513
vn 0.000000 -0.850651 -0.525731
vn -0.153092 -0.686829 -0.710513
vn 0.587785 -0.688191 -0.425325
vn 0.686829 -0.710513 -0.153092
vn 0.247708 -0.439121 -0.863605
vn 0.425325 -0.587785 -0.688191
vn 0.863605 -0.247708 -0.439121
vn 0.688191 -0.425325 -0.587785
vn 0.710513 -0.153092 -0.686829
vn 0.850651 -0.525731 0.000000
vn 0.958221 0.000000 -0.286029
vn 0.951057 -0.262866 -0.162460
vn 0.951057 -0.262866 0.162460
vn 0.958221 0.000000 0.286029
vn 0.262866 -0.162460 0.951057
vn 0.525731 0.000000 0.850651
vn 0.262866 0.162460 0.951057
vn -0.587785 -0.688191 0.425325
vn -0.425325 -0.587785 0.688191
vn -0.688191 -0.425325 0.587785
vn -0.425325 -0.587785 -0.688191
vn -0.587785 -0.688191 -0.425325
vn -0.688191 -0.425325 -0.587785
vn 0.525731 0.000000 -0.850651
vn 0.262866 -0.162460 -0.951057
vn 0.262866 0.162460 -0.951057
vn 0.951057 0.262866 0.162460
vn 0.951057 0.262866 -0.162460
vn 0.850651 0.525731 0.000000
vn -0.607766 0.790698 0.073600
vn -0.569691 0.796447 0.202791
vn -0.488678 0.864298 0.119088
vn -0.707107 0.601501 0.371748
vn -0.644141 0.706851 0.292310
vn -0.755860 0.611679 0.233506
vn -0.378038 0.845185 0.377821
vn -0.518959 0.784217 0.340125
vn -0.453990 0.757935 0.468430
vn -0.790698 0.073600 0.607766
vn -0.796447 0.202791 0.569691
vn -0.864298 0.119088 0.488678
vn -0.601501 0.371748 0.707107
vn -0.706851 0.292310 0.644141
vn -0.611679 0.233506 0.755860
vn -0.845185 0.377821 0.378038
vn -0.784217 0.340125 0.518959
vn -0.757935 0.468430 0.453990
vn -0.073600 0.607766 0.790698
vn -0.202791 0.569691 0.796447
vn -0.119088 0.488678 0.864298
vn -0.371748 0.707107 0.601501
vn -0.292310 0.644141 0.706851
vn -0.233506 0.755860 0.611679
vn -0.377821 0.378038 0.845185
vn -0.340125 0.518959 0.784217
vn -0.468430 0.453990 0.757935
vn -0.646578 0.564254 0.513375
vn -0.564254 0.513375 0.646578
vn -0.513375 0.646578 0.564254
vn -0.366900 0.921779 0.125332
vn -0.415078 0.909786 0.000000
vn -0.238677 0.891007 0.386187
vn -0.304016 0.917059 0.258024
vn -0.144532 0.989500 0.000000
vn -0.226649 0.964875 0.132842
vn -0.082242 0.987688 0.133071
vn 0.073600 0.607766 0.790698
vn 0.000000 0.695022 0.718988
vn 0.156434 0.840178 0.519258
vn 0.077367 0.776983 0.624750
vn 0.233506 0.755860 0.611679
vn -0.077367 0.776983 0.624750
vn -0.156434 0.840178 0.519258
vn 0.415078 0.909786 0.000000
vn 0.366900 0.921779 0.125332
vn 0.488678 0.864298 0.119088
vn 0.082242 0.987688 0.133071
vn 0.226649 0.964875 0.132842
vn 0.144532 0.989500 0.000000
vn 0.378038 0.845185 0.377821
vn 0.304016 0.917059 0.258024
vn 0.238677 0.891007 0.386187
vn -0.082324 0.912982 0.399607
vn 0.082324 0.912982 0.399607
vn 0.000000 0.963861 0.266405
vn -0.366900 0.921779 -0.125332
vn -0.488678 0.864298 -0.119088
vn -0.082242 0.987688 -0.133071
vn -0.226649 0.964875 -0.132842
vn -0.378038 0.845185 -0.377821
vn -0.304016 0.917059 -0.258024
vn -0.238677 0.891007 -0.386187
vn 0.488678 0.864298 -0.119088
vn 0.366900 0.921779 -0.125332
vn 0.238677 0.891007 -0.386187
vn 0.304016 0.917059 -0.258024
vn 0.378038 0.845185 -0.377821
vn 0.226649 0.964875 -0.132842
vn 0.082242 0.987688 -0.133071
vn -0.073600 0.607766 -0.790698
vn 0.000000 0.695022 -0.718988
vn 0.073600 0.607766 -0.790698
vn -0.156434 0.840178 -0.519258
vn -0.077367 0.776983 -0.624750
vn -0.233506 0.755860 -0.611679
vn 0.233506 0.755860 -0.611679
vn 0.077367 0.776983 -0.624750
vn 0.156434 0.840178 -0.519258
vn 0.000000 0.963861 -0.266405
vn 0.082324 0.912982 -0.399607
vn -0.082324 0.912982 -0.399607
vn -0.569691 0.796447 -0.202791
vn -0.607766 0.790698 -0.073600
vn -0.453990 0.757935 -0.468430
vn -0.518959 0.784217 -0.340125
vn -0.755860 0.611679 -0.233506
vn -0.644141 0.706851 -0.292310
vn -0.707107 0.601501 -0.371748
vn -0.119088 0.488678 -0.864298
vn -0.202791 0.569691 -0.796447
vn -0.468430 0.453990 -0.757935
vn -0.340125 0.518959 -0.784217
vn -0.377821 0.378038 -0.845185
vn -0.292310 0.644141 -0.706851
vn -0.371748 0.707107 -0.601501
vn -0.864298 0.119088 -0.488678
vn -0.796447 0.202791 -0.569691
vn -0.790698 0.073600 -0.607766
vn -0.757935 0.468430 -0.453990
vn -0.784217 0.340125 -0.518959
vn -0.845185 0.377821 -0.378038
vn -0.611679 0.233506 -0.755860
vn -0.706851 0.292310 -0.644141
vn -0.601501 0.371748 -0.707107
vn -0.513375 0.646578 -0.564254
vn -0.564254 0.513375 -0.646578
vn -0.646578 0.564254 -0.513375
vn -0.695022 0.718988 0.000000
vn -0.840178 0.519258 -0.156434
vn -0.776983 0.624750 -0.077367
vn -0.776983 0.624750 0.077367
vn -0.840178 0.519258 0.156434
vn -0.909786 0.000000 -0.415078
vn -0.921779 0.125332 -0.366900
vn -0.987688 0.133071 -0.082242
vn -0.964875 0.132842 -0.226649
vn -0.989500 0.000000 -0.144532
vn -0.917059 0.258024 -0.304016
vn -0.891007 0.386187 -0.238677
vn -0.921779 0.125332 0.366900
vn -0.909786 0.000000 0.415078
vn -0.891007 0.386187 0.238677
vn -0.917059 0.258024 0.304016
vn -0.989500 0.000000 0.144532
vn -0.964875 0.132842 0.226649
vn -0.987688 0.133071 0.082242
vn -0.912982 0.399607 -0.082324
vn -0.963861 0.266405 0.000000
vn -0.912982 0.399607 0.082324
vn 0.569691 0.796447 0.202791
vn 0.607766 0.790698 0.073600
vn 0.453990 0.757935 0.468430
vn 0.518959 0.784217 0.340125
vn 0.755860 0.611679 0.233506
vn 0.644141 0.706851 0.292310
vn 0.707107 0.601501 0.371748
vn 0.119088 0.488678 0.864298
vn 0.202791 0.569691 0.796447
vn 0.468430 0.453990 0.757935
vn 0.340125 0.518959 0.784217
vn 0.377821 0.378038 0.845185
vn 0.292310 0.644141 0.706851
vn 0.371748 0.707107 0.601501
vn 0.864298 0.119088 0.488678
vn 0.796447 0.202791 0.569691
vn 0.790698 0.073600 0.607766
vn 0.757935 0.468430 0.453990
vn 0.784217 0.340125 0.518959
vn 0.845185 0.377821 0.378038
vn 0.611679 0.233506 0.755860
vn 0.706851 0.292310 0.644141
vn 0.601501 0.371748 0.707107
vn 0.513375 0.646578 0.564254
vn 0.564254 0.513375 0.646578
vn 0.646578 0.564254 0.513375
vn -0.125332 0.366900 0.921779
vn 0.000000 0.415078 0.909786
vn -0.386187 0.238677 0.891007
vn -0.258024 0.304016 0.917059
vn 0.000000 0.144532 0.989500
vn -0.132842 0.226649 0.964875
vn -0.133071 0.082242 0.987688
vn -0.790698 -0.073600 0.607766
vn -0.718988 0.000000 0.695022
vn -0.519258 -0.156434 0.840178
vn -0.624750 -0.077367 0.776983
vn -0.611679 -0.233506 0.755860
vn -0.624750 0.077367 0.776983
vn -0.519258 0.156434 0.840178
vn 0.000000 -0.415078 0.909786
vn -0.125332 -0.366900 0.921779
vn -0.119088 -0.488678 0.864298
vn -0.133071 -0.082242 0.987688
vn -0.132842 -0.226649 0.964875
vn 0.000000 -0.144532 0.989500
vn -0.377821 -0.378038 0.845185
vn -0.258024 -0.304016 0.917059
vn -0.386187 -0.238677 0.891007
vn -0.399607 0.082324 0.912982
vn -0.399607 -0.082324 0.912982
vn -0.266405 0.000000 0.963861
vn -0.921779 -0.125332 0.366900
vn -0.864298 -0.119088 0.488678
vn -0.987688 -0.133071 0.082242
vn -0.964875 -0.132842 0.226649
vn -0.845185 -0.377821 0.378038
vn -0.917059 -0.258024 0.304016
vn -0.891007 -0.386187 0.238677
vn -0.864298 -0.119088 -0.488678
vn -0.921779 -0.125332 -0.366900
vn -0.891007 -0.386187 -0.238677
vn -0.917059 -0.258024 -0.304016
vn -0.845185 -0.377821 -0.378038
vn -0.964875 -0.132842 -0.226649
vn -0.987688 -0.133071 -0.082242
vn -0.607766 -0.790698 0.073600
vn -0.695022 -0.718988 0.000000
vn -0.607766 -0.790698 -0.073600
vn -0.840178 -0.519258 0.156434
vn -0.776983 -0.624750 0.077367
vn -0.755860 -0.611679 0.233506
vn -0.755860 -0.611679 -0.233506
vn -0.776983 -0.624750 -0.077367
vn -0.840178 -0.519258 -0.156434
vn -0.963861 -0.266405 0.000000
vn -0.912982 -0.399607 -0.082324
vn -0.912982 -0.399607 0.082324
vn -0.718988 0.000000 -0.695022
vn -0.790698 -0.073600 -0.607766
vn -0.519258 0.156434 -0.840178
vn -0.624750 0.077367 -0.776983
vn -0.611679 -0.233506 -0.755860
vn -0.624750 -0.077367 -0.776983
vn -0.519258 -0.156434 -0.840178
vn 0.000000 0.415078 -0.909786
vn -0.125332 0.366900 -0.921779
vn -0.133071 0.082242 -0.987688
vn -0.132842 0.226649 -0.964875
vn 0.000000 0.144532 -0.989500
vn -0.258024 0.304016 -0.917059
vn -0.386187 0.238677 -0.891007
vn -0.119088 -0.488678 -0.864298
vn -0.125332 -0.366900 -0.921779
vn 0.000000 -0.415078 -0.909786
vn -0.386187 -0.238677 -0.891007
vn -0.258024 -0.304016 -0.917059
vn -0.377821 -0.378038 -0.845185
vn 0.000000 -0.144532 -0.989500
vn -0.132842 -0.226649 -0.964875
vn -0.133071 -0.082242 -0.987688
vn -0.399607 0.082324 -0.912982
vn -0.266405 0.000000 -0.963861
vn -0.399607 -0.082324 -0.912982
vn 0.202791 0.569691 -0.796447
vn 0.119088 0.488678 -0.864298
vn 0.371748 0.707107 -0.601501
vn 0.292310 0.644141 -0.706851
vn 0.377821 0.378038 -0.845185
vn 0.340125 0.518959 -0.784217
vn 0.468430 0.453990 -0.757935
vn 0.607766 0.790698 -0.073600
vn 0.569691 0.796447 -0.202791
vn 0.707107 0.601501 -0.371748
vn 0.644141 0.706851 -0.292310
vn 0.755860 0.611679 -0.233506
vn 0.518959 0.784217 -0.340125
vn 0.453990 0.757935 -0.468430
vn 0.790698 0.073600 -0.607766
vn 0.796447 0.202791 -0.569691
vn 0.864298 0.119088 -0.488678
vn 0.601501 0.371748 -0.707107
vn 0.706851 0.292310 -0.644141
vn 0.611679 0.233506 -0.755860
vn 0.845185 0.377821 -0.378038
vn 0.784217 0.340125 -0.518959
vn 0.757935 0.468430 -0.453990
vn 0.513375 0.646578 -0.564254
vn 0.646578 0.564254 -0.513375
vn 0.564254 0.513375 -0.646578
vn 0.607766 -0.790698 0.073600
vn 0.569691 -0.796447 0.202791
vn 0.488678 -0.864298 0.119088
vn 0.707107 -0.601501 0.371748
vn 0.644141 -0.706851 0.292310
vn 0.755860 -0.611679 0.233506
vn 0.378038 -0.845185 0.377821
vn 0.518959 -0.784217 0.340125
vn 0.453990 -0.757935 0.468430
vn 0.790698 -0.073600 0.607766
vn 0.796447 -0.202791 0.569691
vn 0.864298 -0.119088 0.488678
vn 0.601501 -0.371748 0.707107
vn 0.706851 -0.292310 0.644141
vn 0.611679 -0.233506 0.755860
vn 0.845185 -0.377821 0.378038
vn 0.784217 -0.340125 0.518959
vn 0.757935 -0.468430 0.453990
vn 0.073600 -0.607766 0.790698
vn 0.202791 -0.569691 0.796447
vn 0.119088 -0.488678 0.864298
vn 0.371748 -0.707107 0.601501
vn 0.292310 -0.644141 0.706851
vn 0.233506 -0.755860 0.611679
vn 0.377821 -0.378038 0.845185
vn 0.340125 -0.518959 0.784217
vn 0.468430 -0.453990 0.757935
vn 0.646578 -0.564254 0.513375
vn 0.564254 -0.513375 0.646578
vn 0.513375 -0.646578 0.564254
vn 0.366900 -0.921779 0.125332
vn 0.415078 -0.909786 0.000000
vn 0.238677 -0.891007 0.386187
vn 0.304016 -0.917059 0.258024
vn 0.144532 -0.989500 0.000000
vn 0.226649 -0.964875 0.132842
vn 0.082242 -0.987688 0.133071
vn -0.073600 -0.607766 0.790698
vn 0.000000 -0.695022 0.718988
vn -0.156434 -0.840178 0.519258
vn -0.077367 -0.776983 0.624750
vn -0.233506 -0.755860 0.611679
vn 0.077367 -0.776983 0.624750
vn 0.156434 -0.840178 0.519258
vn -0.415078 -0.909786 0.000000
vn -0.366900 -0.921779 0.125332
vn -0.488678 -0.864298 0.119088
vn -0.082242 -0.987688 0.133071
vn -0.226649 -0.964875 0.132842
vn -0.144532 -0.989500 0.000000
vn -0.378038 -0.845185 0.377821
vn -0.304016 -0.917059 0.258024
vn -0.238677 -0.891007 0.386187
vn 0.082324 -0.912982 0.399607
vn -0.082324 -0.912982 0.399607
vn 0.000000 -0.963861 0.266405
vn 0.366900 -0.921779 -0.125332
vn 0.488678 -0.864298 -0.119088
vn 0.082242 -0.987688 -0.133071
vn 0.226649 -0.964875 -0.132842
vn 0.378038 -0.845185 -0.377821
vn 0.304016 -0.917059 -0.258024
vn 0.238677 -0.891007 -0.386187
vn -0.488678 -0.864298 -0.119088
vn -0.366900 -0.921779 -0.125332
vn -0.238677 -0.891007 -0.386187
vn -0.304016 -0.917059 -0.258024
vn -0.378038 -0.845185 -0.377821
vn -0.226649 -0.964875 -0.132842
vn -0.082242 -0.987688 -0.133071
vn 0.073600 -0.607766 -0.790698
vn 0.000000 -0.695022 -0.718988
vn -0.073600 -0.607766 -0.790698
vn 0.156434 -0.840178 -0.519258
vn 0.077367 -0.776983 -0.624750
vn 0.233506 -0.755860 -0.611679
vn -0.233506 -0.755860 -0.611679
vn -0.077367 -0.776983 -0.624750
vn -0.156434 -0.840178 -0.519258
vn 0.000000 -0.963861 -0.266405
vn -0.082324 -0.912982 -0.399607
vn 0.082324 -0.912982 -0.399607
vn 0.569691 -0.796447 -0.202791
vn 0.607766 -0.790698 -0.073600
vn 0.453990 -0.757935 -0.468430
vn 0.518959 -0.784217 -0.340125
vn 0.755860 -0.611679 -0.233506
vn 0.644141 -0.706851 -0.292310
vn 0.707107 -0.601501 -0.371748
vn 0.119088 -0.488678 -0.864298
vn 0.202791 -0.569691 -0.796447
vn 0.468430 -0.453990 -0.757935
vn 0.340125 -0.518959 -0.784217
vn 0.377821 -0.378038 -0.845185
vn 0.292310 -0.644141 -0.706851
vn 0.371748 -0.707107 -0.601501
vn 0.864298 -0.119088 -0.488678
vn 0.796447 -0.202791 -0.569691
vn 0.790698 -0.073600 -0.607766
vn 0.757935 -0.468430 -0.453990
vn 0.784217 -0.340125 -0.518959
vn 0.845185 -0.377821 -0.378038
vn 0.611679 -0.233506 -0.755860
vn 0.706851 -0.292310 -0.644141
vn 0.601501 -0.371748 -0.707107
vn 0.513375 -0.646578 -0.564254
vn 0.564254 -0.513375 -0.646578
vn 0.646578 -0.564254 -0.513375
vn 0.695022 -0.718988 0.000000
vn 0.840178 -0.519258 -0.156434
vn 0.776983 -0.624750 -0.077367
vn 0.776983 -0.624750 0.077367
vn 0.840178 -0.519258 0.156434
vn 0.909786 0.000000 -0.415078
vn 0.921779 -0.125332 -0.366900
vn 0.987688 -0.133071 -0.082242
vn 0.964875 -0.132842 -0.226649
vn 0.989500 0.000000 -0.144532
vn 0.917059 -0.258024 -0.304016
vn 0.891007 -0.386187 -0.238677
vn 0.921779 -0.125332 0.366900
vn 0.909786 0.000000 0.415078
vn 0.891007 -0.386187 0.238677
vn 0.917059 -0.258024 0.304016
vn 0.989500 0.000000 0.144532
vn 0.964875 -0.132842 0.226649
vn 0.987688 -0.133071 0.082242
vn 0.912982 -0.399607 -0.082324
vn 0.963861 -0.266405 0.000000
vn 0.912982 -0.399607 0.082324
vn 0.125332 -0.366900 0.921779
vn 0.386187 -0.238677 0.891007
vn 0.258024 -0.304016 0.917059
vn 0.132842 -0.226649 0.964875
vn 0.133071 -0.082242 0.987688
vn 0.718988 0.000000 0.695022
vn 0.519258 0.156434 0.840178
vn 0.624750 0.077367 0.776983
vn 0.624750 -0.077367 0.776983
vn 0.519258 -0.156434 0.840178
vn 0.125332 0.366900 0.921779
vn 0.133071 0.082242 0.987688
vn 0.132842 0.226649 0.964875
vn 0.258024 0.304016 0.917059
vn 0.386187 0.238677 0.891007
vn 0.399607 -0.082324 0.912982
vn 0.399607 0.082324 0.912982
vn 0.266405 0.000000 0.963861
vn -0.569691 -0.796447 0.202791
vn -0.453990 -0.757935 0.468430
vn -0.518959 -0.784217 0.340125
vn -0.644141 -0.706851 0.292310
vn -0.707107 -0.601501 0.371748
vn -0.202791 -0.569691 0.796447
vn -0.468430 -0.453990 0.757935
vn -0.340125 -0.518959 0.784217
vn -0.292310 -0.644141 0.706851
vn -0.371748 -0.707107 0.601501
vn -0.796447 -0.202791 0.569691
vn -0.757935 -0.468430 0.453990
vn -0.784217 -0.340125 0.518959
vn -0.706851 -0.292310 0.644141
vn -0.601501 -0.371748 0.707107
vn -0.513375 -0.646578 0.564254
vn -0.564254 -0.513375 0.646578
vn -0.646578 -0.564254 0.513375
vn -0.202791 -0.569691 -0.796447
vn -0.371748 -0.707107 -0.601501
vn -0.292310 -0.644141 -0.706851
vn -0.340125 -0.518959 -0.784217
vn -0.468430 -0.453990 -0.757935
vn -0.569691 -0.796447 -0.202791
vn -0.707107 -0.601501 -0.371748
vn -0.644141 -0.706851 -0.292310
vn -0.518959 -0.784217 -0.340125
vn -0.453990 -0.757935 -0.468430
vn -0.796447 -0.202791 -0.569691
vn -0.601501 -0.371748 -0.707107
vn -0.706851 -0.292310 -0.644141
vn -0.784217 -0.340125 -0.518959
vn -0.757935 -0.468430 -0.453990
vn -0.513375 -0.646578 -0.564254
vn -0.646578 -0.564254 -0.513375
vn -0.564254 -0.513375 -0.646578
vn 0.718988 0.000000 -0.695022
vn 0.519258 -0.156434 -0.840178
vn 0.624750 -0.077367 -0.776983
vn 0.624750 0.077367 -0.776983
vn 0.519258 0.156434 -0.840178
vn 0.125332 -0.366900 -0.921779
vn 0.133071 -0.082242 -0.987688
vn 0.132842 -0.226649 -0.964875
vn 0.258024 -0.304016 -0.917059
vn 0.386187 -0.238677 -0.891007
vn 0.125332 0.366900 -0.921779
vn 0.386187 0.238677 -0.891007
vn 0.258024 0.304016 -0.917059
vn 0.132842 0.226649 -0.964875
vn 0.133071 0.082242 -0.987688
vn 0.399607 -0.082324 -0.912982
vn 0.266405 0.000000 -0.963861
vn 0.399607 0.082324 -0.912982
vn 0.921779 0.125332 0.366900
vn 0.987688 0.133071 0.082242
vn 0.964875 0.132842 0.226649
vn 0.917059 0.258024 0.304016
vn 0.891007 0.386187 0.238677
vn 0.921779 0.125332 -0.366900
vn 0.891007 0.386187 -0.238677
vn 0.917059 0.258024 -0.304016
vn 0.964875 0.132842 -0.226649
vn 0.987688 0.133071 -0.082242
vn 0.695022 0.718988 0.000000
vn 0.840178 0.519258 0.156434
vn 0.776983 0.624750 0.077367
vn 0.776983 0.624750 -0.077367
vn 0.840178 0.519258 -0.156434
vn 0.963861 0.266405 0.000000
vn 0.912982 0.399607 -0.082324
vn 0.912982 0.399607 0.082324
vt 0.355662 0.733543
vt 0.644338 0.733543
vt 0.355662 0.266457
vt 0.644338 0.266457
vt 0.500000 0.355662
vt 0.500000 0.644338
vt 0.500000 0.355662
vt 0.500000 0.644338
vt 0.733543 0.500000
vt 0.733543 0.500000
vt 0.266457 0.500000
vt 0.266457 0.500000
vt 0.297746 0.625000
vt 0.375000 0.577254
vt 0.422746 0.702254
vt 0.577254 0.702254
vt 0.500000 0.750000
vt 0.577254 0.702254
vt 0.422746 0.702254
vt 0.375000 0.577254
vt 0.297746 0.625000
vt 0.250000 0.500000
vt 0.625000 0.577254
vt 0.702254 0.625000
vt 0.375000 0.422746
vt 0.500000 0.500000
vt 0.297746 0.375000
vt 0.297746 0.375000
vt 0.500000 0.500000
vt 0.375000 0.422746
vt 0.702254 0.625000
vt 0.625000 0.577254
vt 0.702254 0.375000
vt 0.625000 0.422746
vt 0.577254 0.297746
vt 0.422746 0.297746
vt 0.500000 0.250000
vt 0.422746 0.297746
vt 0.577254 0.297746
vt 0.625000 0.422746
vt 0.702254 0.375000
vt 0.750000 0.500000
vt 0.328293 0.677628
vt 0.353054 0.672048
vt 0.390220 0.715901
vt 0.322372 0.538273
vt 0.327952 0.606331
vt 0.284099 0.561927
vt 0.461727 0.671707
vt 0.393669 0.646946
vt 0.438073 0.609780
vt 0.459385 0.737764
vt 0.428493 0.739555
vt 0.538273 0.671707
vt 0.500000 0.712663
vt 0.571507 0.739555
vt 0.540615 0.737764
vt 0.609780 0.715901
vt 0.459385 0.737764
vt 0.390220 0.715901
vt 0.609780 0.715901
vt 0.540615 0.737764
vt 0.461727 0.671707
vt 0.500000 0.712663
vt 0.538273 0.671707
vt 0.353054 0.672048
vt 0.328293 0.677628
vt 0.438073 0.609780
vt 0.393669 0.646946
vt 0.284099 0.561927
vt 0.327952 0.606331
vt 0.322372 0.538273
vt 0.287337 0.631433
vt 0.260445 0.500000
vt 0.262236 0.565716
vt 0.262236 0.565716
vt 0.260445 0.500000
vt 0.646946 0.672048
vt 0.671707 0.677628
vt 0.561927 0.609780
vt 0.606331 0.646946
vt 0.715901 0.561927
vt 0.672048 0.606331
vt 0.677628 0.538273
vt 0.434284 0.540615
vt 0.500000 0.571507
vt 0.322372 0.461727
vt 0.368567 0.500000
vt 0.500000 0.428493
vt 0.434284 0.459385
vt 0.438073 0.390220
vt 0.262236 0.434284
vt 0.284099 0.438073
vt 0.284099 0.438073
vt 0.262236 0.434284
vt 0.328293 0.322372
vt 0.287337 0.368567
vt 0.328293 0.322372
vt 0.368567 0.500000
vt 0.322372 0.461727
vt 0.500000 0.571507
vt 0.434284 0.540615
vt 0.438073 0.390220
vt 0.434284 0.459385
vt 0.500000 0.428493
vt 0.606331 0.646946
vt 0.561927 0.609780
vt 0.671707 0.677628
vt 0.646946 0.672048
vt 0.677628 0.538273
vt 0.672048 0.606331
vt 0.715901 0.561927
vt 0.671707 0.322372
vt 0.646946 0.327952
vt 0.609780 0.284099
vt 0.677628 0.461727
vt 0.672048 0.393669
vt 0.715901 0.438073
vt 0.538273 0.328293
vt 0.606331 0.353054
vt 0.561927 0.390220
vt 0.540615 0.262236
vt 0.571507 0.260445
vt 0.461727 0.328293
vt 0.500000 0.287337
vt 0.428493 0.260445
vt 0.459385 0.262236
vt 0.390220 0.284099
vt 0.540615 0.262236
vt 0.609780 0.284099
vt 0.390220 0.284099
vt 0.459385 0.262236
vt 0.538273 0.328293
vt 0.500000 0.287337
vt 0.461727 0.328293
vt 0.646946 0.327952
vt 0.671707 0.322372
vt 0.561927 0.390220
vt 0.606331 0.353054
vt 0.715901 0.438073
vt 0.672048 0.393669
vt 0.677628 0.461727
vt 0.712663 0.368567
vt 0.739555 0.500000
vt 0.737764 0.434284
vt 0.737764 0.434284
vt 0.739555 0.500000
vt 0.565716 0.459385
vt 0.631433 0.500000
vt 0.565716 0.540615
vt 0.353054 0.327952
vt 0.393669 0.353054
vt 0.327952 0.393669
vt 0.393669 0.353054
vt 0.353054 0.327952
vt 0.327952 0.393669
vt 0.631433 0.500000
vt 0.565716 0.459385
vt 0.565716 0.540615
vt 0.737764 0.565716
vt 0.737764 0.565716
vt 0.712663 0.631433
vt 0.348058 0.697674
vt 0.357577 0.699112
vt 0.377830 0.716075
vt 0.323223 0.650375
vt 0.338965 0.676713
vt 0.311035 0.652920
vt 0.405490 0.711296
vt 0.370260 0.696054
vt 0.386502 0.689484
vt 0.302326 0.518400
vt 0.300888 0.550698
vt 0.283925 0.529772
vt 0.349625 0.592937
vt 0.323287 0.573077
vt 0.347080 0.558377
vt 0.288704 0.594455
vt 0.303946 0.585031
vt 0.310516 0.617107
vt 0.481600 0.651942
vt 0.449302 0.642423
vt 0.470228 0.622170
vt 0.407063 0.676777
vt 0.426923 0.661035
vt 0.441623 0.688965
vt 0.405545 0.594510
vt 0.414969 0.629740
vt 0.382893 0.613498
vt 0.338356 0.641064
vt 0.358936 0.628344
vt 0.371656 0.661644
vt 0.408275 0.730445
vt 0.396231 0.727446
vt 0.440331 0.722752
vt 0.423996 0.729265
vt 0.463867 0.747375
vt 0.443338 0.741219
vt 0.479439 0.746922
vt 0.518400 0.651942
vt 0.500000 0.673756
vt 0.539109 0.710044
vt 0.519342 0.694246
vt 0.558377 0.688965
vt 0.480658 0.694246
vt 0.460891 0.710044
vt 0.603769 0.727446
vt 0.591725 0.730445
vt 0.622170 0.716075
vt 0.520561 0.746922
vt 0.556662 0.741219
vt 0.536133 0.747375
vt 0.594510 0.711296
vt 0.576004 0.729265
vt 0.559669 0.722752
vt 0.479419 0.728246
vt 0.520581 0.728246
vt 0.500000 0.740965
vt 0.408275 0.730445
vt 0.377830 0.716075
vt 0.479439 0.746922
vt 0.443338 0.741219
vt 0.405490 0.711296
vt 0.423996 0.729265
vt 0.440331 0.722752
vt 0.622170 0.716075
vt 0.591725 0.730445
vt 0.559669 0.722752
vt 0.576004 0.729265
vt 0.594510 0.711296
vt 0.556662 0.741219
vt 0.520561 0.746922
vt 0.481600 0.651942
vt 0.500000 0.673756
vt 0.518400 0.651942
vt 0.460891 0.710044
vt 0.480658 0.694246
vt 0.441623 0.688965
vt 0.558377 0.688965
vt 0.519342 0.694246
vt 0.539109 0.710044
vt 0.500000 0.740965
vt 0.520581 0.728246
vt 0.479419 0.728246
vt 0.357577 0.699112
vt 0.348058 0.697674
vt 0.386502 0.689484
vt 0.370260 0.696054
vt 0.311035 0.652920
vt 0.338965 0.676713
vt 0.323223 0.650375
vt 0.470228 0.622170
vt 0.449302 0.642423
vt 0.382893 0.613498
vt 0.414969 0.629740
vt 0.405545 0.594510
vt 0.426923 0.661035
vt 0.407063 0.676777
vt 0.283925 0.529772
vt 0.300888 0.550698
vt 0.302326 0.518400
vt 0.310516 0.617107
vt 0.303946 0.585031
vt 0.288704 0.594455
vt 0.347080 0.558377
vt 0.323287 0.573077
vt 0.349625 0.592937
vt 0.371656 0.661644
vt 0.358936 0.628344
vt 0.338356 0.641064
vt 0.326244 0.679747
vt 0.289956 0.629815
vt 0.305754 0.656187
vt 0.305754 0.656187
vt 0.289956 0.629815
vt 0.272554 0.500000
vt 0.269555 0.531333
vt 0.253078 0.533268
vt 0.258781 0.533211
vt 0.252625 0.500000
vt 0.270735 0.564506
vt 0.277248 0.596547
vt 0.269555 0.531333
vt 0.272554 0.500000
vt 0.277248 0.596547
vt 0.270735 0.564506
vt 0.252625 0.500000
vt 0.258781 0.533211
vt 0.253078 0.533268
vt 0.271754 0.599902
vt 0.259035 0.566601
vt 0.271754 0.599902
vt 0.642423 0.699112
vt 0.651942 0.697674
vt 0.613498 0.689484
vt 0.629740 0.696054
vt 0.688965 0.652920
vt 0.661035 0.676713
vt 0.676777 0.650375
vt 0.529772 0.622170
vt 0.550698 0.642423
vt 0.617107 0.613498
vt 0.585031 0.629740
vt 0.594455 0.594510
vt 0.573077 0.661035
vt 0.592937 0.676777
vt 0.716075 0.529772
vt 0.699112 0.550698
vt 0.697674 0.518400
vt 0.689484 0.617107
vt 0.696054 0.585031
vt 0.711296 0.594455
vt 0.652920 0.558377
vt 0.676713 0.573077
vt 0.650375 0.592937
vt 0.628344 0.661644
vt 0.641064 0.628344
vt 0.661644 0.641064
vt 0.468667 0.591725
vt 0.500000 0.603769
vt 0.403453 0.559669
vt 0.435494 0.576004
vt 0.500000 0.536133
vt 0.466789 0.556662
vt 0.466732 0.520561
vt 0.302326 0.481600
vt 0.320253 0.500000
vt 0.370185 0.460891
vt 0.343813 0.480658
vt 0.347080 0.441623
vt 0.343813 0.519342
vt 0.370185 0.539109
vt 0.500000 0.396231
vt 0.468667 0.408275
vt 0.470228 0.377830
vt 0.466732 0.479439
vt 0.466789 0.443338
vt 0.500000 0.463867
vt 0.405545 0.405490
vt 0.435494 0.423996
vt 0.403453 0.440331
vt 0.400098 0.520581
vt 0.400098 0.479419
vt 0.433399 0.500000
vt 0.269555 0.468667
vt 0.283925 0.470228
vt 0.253078 0.466732
vt 0.258781 0.466789
vt 0.288704 0.405545
vt 0.270735 0.435494
vt 0.277248 0.403453
vt 0.283925 0.470228
vt 0.269555 0.468667
vt 0.277248 0.403453
vt 0.270735 0.435494
vt 0.288704 0.405545
vt 0.258781 0.466789
vt 0.253078 0.466732
vt 0.348058 0.302326
vt 0.326244 0.320253
vt 0.348058 0.302326
vt 0.289956 0.370185
vt 0.305754 0.343813
vt 0.311035 0.347080
vt 0.311035 0.347080
vt 0.305754 0.343813
vt 0.289956 0.370185
vt 0.259035 0.433399
vt 0.271754 0.400098
vt 0.271754 0.400098
vt 0.320253 0.500000
vt 0.302326 0.481600
vt 0.370185 0.539109
vt 0.343813 0.519342
vt 0.347080 0.441623
vt 0.343813 0.480658
vt 0.370185 0.460891
vt 0.500000 0.603769
vt 0.468667 0.591725
vt 0.466732 0.520561
vt 0.466789 0.556662
vt 0.500000 0.536133
vt 0.435494 0.576004
vt 0.403453 0.559669
vt 0.470228 0.377830
vt 0.468667 0.408275
vt 0.500000 0.396231
vt 0.403453 0.440331
vt 0.435494 0.423996
vt 0.405545 0.405490
vt 0.500000 0.463867
vt 0.466789 0.443338
vt 0.466732 0.479439
vt 0.400098 0.520581
vt 0.433399 0.500000
vt 0.400098 0.479419
vt 0.550698 0.642423
vt 0.529772 0.622170
vt 0.592937 0.676777
vt 0.573077 0.661035
vt 0.594455 0.594510
vt 0.585031 0.629740
vt 0.617107 0.613498
vt 0.651942 0.697674
vt 0.642423 0.699112
vt 0.676777 0.650375
vt 0.661035 0.676713
vt 0.688965 0.652920
vt 0.629740 0.696054
vt 0.613498 0.689484
vt 0.697674 0.518400
vt 0.699112 0.550698
vt 0.716075 0.529772
vt 0.650375 0.592937
vt 0.676713 0.573077
vt 0.652920 0.558377
vt 0.711296 0.594455
vt 0.696054 0.585031
vt 0.689484 0.617107
vt 0.628344 0.661644
vt 0.661644 0.641064
vt 0.641064 0.628344
vt 0.651942 0.302326
vt 0.642423 0.300888
vt 0.622170 0.283925
vt 0.676777 0.349625
vt 0.661035 0.323287
vt 0.688965 0.347080
vt 0.594510 0.288704
vt 0.629740 0.303946
vt 0.613498 0.310516
vt 0.697674 0.481600
vt 0.699112 0.449302
vt 0.716075 0.470228
vt 0.650375 0.407063
vt 0.676713 0.426923
vt 0.652920 0.441623
vt 0.711296 0.405545
vt 0.696054 0.414969
vt 0.689484 0.382893
vt 0.518400 0.348058
vt 0.550698 0.357577
vt 0.529772 0.377830
vt 0.592937 0.323223
vt 0.573077 0.338965
vt 0.558377 0.311035
vt 0.594455 0.405490
vt 0.585031 0.370260
vt 0.617107 0.386502
vt 0.661644 0.358936
vt 0.641064 0.371656
vt 0.628344 0.338356
vt 0.591725 0.269555
vt 0.603769 0.272554
vt 0.559669 0.277248
vt 0.576004 0.270735
vt 0.536133 0.252625
vt 0.556662 0.258781
vt 0.520561 0.253078
vt 0.481600 0.348058
vt 0.500000 0.326244
vt 0.460891 0.289956
vt 0.480658 0.305754
vt 0.441623 0.311035
vt 0.519342 0.305754
vt 0.539109 0.289956
vt 0.396231 0.272554
vt 0.408275 0.269555
vt 0.377830 0.283925
vt 0.479439 0.253078
vt 0.443338 0.258781
vt 0.463867 0.252625
vt 0.405490 0.288704
vt 0.423996 0.270735
vt 0.440331 0.277248
vt 0.520581 0.271754
vt 0.479419 0.271754
vt 0.500000 0.259035
vt 0.591725 0.269555
vt 0.622170 0.283925
vt 0.520561 0.253078
vt 0.556662 0.258781
vt 0.594510 0.288704
vt 0.576004 0.270735
vt 0.559669 0.277248
vt 0.377830 0.283925
vt 0.408275 0.269555
vt 0.440331 0.277248
vt 0.423996 0.270735
vt 0.405490 0.288704
vt 0.443338 0.258781
vt 0.479439 0.253078
vt 0.518400 0.348058
vt 0.500000 0.326244
vt 0.481600 0.348058
vt 0.539109 0.289956
vt 0.519342 0.305754
vt 0.558377 0.311035
vt 0.441623 0.311035
vt 0.480658 0.305754
vt 0.460891 0.289956
vt 0.500000 0.259035
vt 0.479419 0.271754
vt 0.520581 0.271754
vt 0.642423 0.300888
vt 0.651942 0.302326
vt 0.613498 0.310516
vt 0.629740 0.303946
vt 0.688965 0.347080
vt 0.661035 0.323287
vt 0.676777 0.349625
vt 0.529772 0.377830
vt 0.550698 0.357577
vt 0.617107 0.386502
vt 0.585031 0.370260
vt 0.594455 0.405490
vt 0.573077 0.338965
vt 0.592937 0.323223
vt 0.716075 0.470228
vt 0.699112 0.449302
vt 0.697674 0.481600
vt 0.689484 0.382893
vt 0.696054 0.414969
vt 0.711296 0.405545
vt 0.652920 0.441623
vt 0.676713 0.426923
vt 0.650375 0.407063
vt 0.628344 0.338356
vt 0.641064 0.371656
vt 0.661644 0.358936
vt 0.673756 0.320253
vt 0.710044 0.370185
vt 0.694246 0.343813
vt 0.694246 0.343813
vt 0.710044 0.370185
vt 0.727446 0.500000
vt 0.730445 0.468667
vt 0.746922 0.466732
vt 0.741219 0.466789
vt 0.747375 0.500000
vt 0.729265 0.435494
vt 0.722752 0.403453
vt 0.730445 0.468667
vt 0.727446 0.500000
vt 0.722752 0.403453
vt 0.729265 0.435494
vt 0.747375 0.500000
vt 0.741219 0.466789
vt 0.746922 0.466732
vt 0.728246 0.400098
vt 0.740965 0.433399
vt 0.728246 0.400098
vt 0.531333 0.408275
vt 0.596547 0.440331
vt 0.564506 0.423996
vt 0.533211 0.443338
vt 0.533268 0.479439
vt 0.679747 0.500000
vt 0.629815 0.539109
vt 0.656187 0.519342
vt 0.656187 0.480658
vt 0.629815 0.460891
vt 0.531333 0.591725
vt 0.533268 0.520561
vt 0.533211 0.556662
vt 0.564506 0.576004
vt 0.596547 0.559669
vt 0.599902 0.479419
vt 0.599902 0.520581
vt 0.566601 0.500000
vt 0.357577 0.300888
vt 0.386502 0.310516
vt 0.370260 0.303946
vt 0.338965 0.323287
vt 0.323223 0.349625
vt 0.449302 0.357577
vt 0.382893 0.386502
vt 0.414969 0.370260
vt 0.426923 0.338965
vt 0.407063 0.323223
vt 0.300888 0.449302
vt 0.310516 0.382893
vt 0.303946 0.414969
vt 0.323287 0.426923
vt 0.349625 0.407063
vt 0.371656 0.338356
vt 0.358936 0.371656
vt 0.338356 0.358936
vt 0.449302 0.357577
vt 0.407063 0.323223
vt 0.426923 0.338965
vt 0.414969 0.370260
vt 0.382893 0.386502
vt 0.357577 0.300888
vt 0.323223 0.349625
vt 0.338965 0.323287
vt 0.370260 0.303946
vt 0.386502 0.310516
vt 0.300888 0.449302
vt 0.349625 0.407063
vt 0.323287 0.426923
vt 0.303946 0.414969
vt 0.310516 0.382893
vt 0.371656 0.338356
vt 0.338356 0.358936
vt 0.358936 0.371656
vt 0.679747 0.500000
vt 0.629815 0.460891
vt 0.656187 0.480658
vt 0.656187 0.519342
vt 0.629815 0.539109
vt 0.531333 0.408275
vt 0.533268 0.479439
vt 0.533211 0.443338
vt 0.564506 0.423996
vt 0.596547 0.440331
vt 0.531333 0.591725
vt 0.596547 0.559669
vt 0.564506 0.576004
vt 0.533211 0.556662
vt 0.533268 0.520561
vt 0.599902 0.479419
vt 0.566601 0.500000
vt 0.599902 0.520581
vt 0.730445 0.531333
vt 0.746922 0.533268
vt 0.741219 0.533211
vt 0.729265 0.564506
vt 0.722752 0.596547
vt 0.730445 0.531333
vt 0.722752 0.596547
vt 0.729265 0.564506
vt 0.741219 0.533211
vt 0.746922 0.533268
vt 0.673756 0.679747
vt 0.710044 0.629815
vt 0.694246 0.656187
vt 0.694246 0.656187
vt 0.710044 0.629815
vt 0.740965 0.566601
vt 0.728246 0.599902
vt 0.728246 0.599902
f 1/1/1 163/163/163 165/165/165
f 43/43/43 164/164/164 163/163/163
f 45/45/45 165/165/165 164/164/164
f 163/163/163 164/164/164 165/165/165
f 13/13/13 166/166/166 168/168/168
f 44/44/44 167/167/167 166/166/166
f 43/43/43 168/168/168 167/167/167
f 166/166/166 167/167/167 168/168/168
f 15/15/15 169/169/169 171/171/171
f 45/45/45 170/170/170 169/169/169
f 44/44/44 171/171/171 170/170/170
f 169/169/169 170/170/170 171/171/171
f 43/43/43 167/167/167 164/164/164
f 44/44/44 170/170/170 167/167/167
f 45/45/45 164/164/164 170/170/170
f 167/167/167 170/170/170 164/164/164
f 12/12/12 172/172/172 174/174/174
f 46/46/46 173/173/173 172/172/172
f 48/48/48 174/174/174 173/173/173
f 172/172/172 173/173/173 174/174/174
f 14/14/14 175/175/175 177/177/177
f 47/47/47 176/176/176 175/175/175
f 46/46/46 177/177/177 176/176/176
f 175/175/175 176/176/176 177/177/177
f 13/13/13 178/178/178 180/180/180
f 48/48/48 179/179/179 178/178/178
f 47/47/47 180/180/180 179/179/179
f 178/178/178 179/179/179 180/180/180
f 46/46/46 176/176/176 173/173/173
f 47/47/47 179/179/179 176/176/176
f 48/48/48 173/173/173 179/179/179
f 176/176/176 179/179/179 173/173/173
f 6/6/6 181/181/181 183/183/183
f 49/49/49 182/182/182 181/181/181
f 51/51/51 183/183/183 182/182/182
f 181/181/181 182/182/182 183/183/183
f 15/15/15 184/184/184 186/186/186
f 50/50/50 185/185/185 184/184/184
f 49/49/49 186/186/186 185/185/185
f 184/184/184 185/185/185 186/186/186
f 14/14/14 187/187/187 189/189/189
f 51/51/51 188/188/188 187/187/187
f 50/50/50 189/189/189 188/188/188
f 187/187/187 188/188/188 189/189/189
f 49/49/49 185/185/185 182/182/182
f 50/50/50 188/188/188 185/185/185
f 51/51/51 182/182/182 188/188/188
f 185/185/185 188/188/188 182/182/182
f 13/13/13 180/180/180 166/166/166
f 47/47/47 190/190/190 180/180/180
f 44/44/44 166/166/166 190/190/190
f 180/180/180 190/190/190 166/166/166
f 14/14/14 189/189/189 175/175/175
f 50/50/50 191/191/191 189/189/189
f 47/47/47 175/175/175 191/191/191
f 189/189/189 191/191/191 175/175/175
f 15/15/15 171/171/171 184/184/184
f 44/44/44 192/192/192 171/171/171
f 50/50/50 184/184/184 192/192/192
f 171/171/171 192/192/192 184/184/184
f 47/47/47 191/191/191 190/190/190
f 50/50/50 192/192/192 191/191/191
f 44/44/44 190/190/190 192/192/192
f 191/191/191 192/192/192 190/190/190
f 1/1/1 165/165/165 194/194/194
f 45/45/45 193/193/193 165/165/165
f 53/53/53 194/194/194 193/193/193
f 165/165/165 193/193/193 194/194/194
f 15/15/15 195/195/195 169/169/169
f 52/52/52 196/196/196 195/195/195
f 45/45/45 169/169/169 196/196/196
f 195/195/195 196/196/196 169/169/169
f 17/17/17 197/197/197 199/199/199
f 53/53/53 198/198/198 197/197/197
f 52/52/52 199/199/199 198/198/198
f 197/197/197 198/198/198 199/199/199
f 45/45/45 196/196/196 193/193/193
f 52/52/52 198/198/198 196/196/196
f 53/53/53 193/193/193 198/198/198
f 196/196/196 198/198/198 193/193/193
f 6/6/6 200/200/200 181/181/181
f 54/54/54 201/201/201 200/200/200
f 49/49/49 181/181/181 201/201/201
f 200/200/200 201/201/201 181/181/181
f 16/16/16 202/202/202 204/204/204
f 55/55/55 203/203/203 202/202/202
f 54/54/54 204/204/204 203/203/203
f 202/202/202 203/203/203 204/204/204
f 15/15/15 186/186/186 206/206/206
f 49/49/49 205/205/205 186/186/186
f 55/55/55 206/206/206 205/205/205
f 186/186/186 205/205/205 206/206/206
f 54/54/54 203/203/203 201/201/201
f 55/55/55 205/205/205 203/203/203
f 49/49/49 201/201/201 205/205/205
f 203/203/203 205/205/205 201/201/201
f 2/2/2 207/207/207 209/209/209
f 56/56/56 208/208/208 207/207/207
f 58/58/58 209/209/209 208/208/208
f 207/207/207 208/208/208 209/209/209
f 17/17/17 210/210/210 212/212/212
f 57/57/57 211/211/211 210/210/210
f 56/56/56 212/212/212 211/211/211
f 210/210/210 211/211/211 212/212/212
f 16/16/16 213/213/213 215/215/215
f 58/58/58 214/214/214 213/213/213
f 57/57/57 215/215/215 214/214/214
f 213/213/213 214/214/214 215/215/215
f 56/56/56 211/211/211 208/208/208
f 57/57/57 214/214/214 211/211/211
f 58/58/58 208/208/208 214/214/214
f 211/211/211 214/214/214 208/208/208
f 15/15/15 206/206/206 195/195/195
f 55/55/55 216/216/216 206/206/206
f 52/52/52 195/195/195 216/216/216
f 206/206/206 216/216/216 195/195/195
f 16/16/16 215/215/215 202/202/202
f 57/57/57 217/217/217 215/215/215
f 55/55/55 202/202/202 217/217/217
f 215/215/215 217/217/217 202/202/202
f 17/17/17 199/199/199 210/210/210
f 52/52/52 218/218/218 199/199/199
f 57/57/57 210/210/210 218/218/218
f 199/199/199 218/218/218 210/210/210
f 55/55/55 217/217/217 216/216/216
f 57/57/57 218/218/218 217/217/217
f 52/52/52 216/216/216 218/218/218
f 217/217/217 218/218/218 216/216/216
f 1/1/1 194/194/194 220/220/220
f 53/53/53 219/219/219 194/194/194
f 60/60/60 220/220/220 219/219/219
f 194/194/194 219/219/219 220/220/220
f 17/17/17 221/221/221 197/197/197
f 59/59/59 222/222/222 221/221/221
f 53/53/53 197/197/197 222/222/222
f 221/221/221 222/222/222 197/197/197
f 19/19/19 223/223/223 225/225/225
f 60/60/60 224/224/224 223/223/223
f 59/59/59 225/225/225 224/224/224
f 223/223/223 224/224/224 225/225/225
f 53/53/53 222/222/222 219/219/219
f 59/59/59 224/224/224 222/222/222
f 60/60/60 219/219/219 224/224/224
f 222/222/222 224/224/224 219/219/219
f 2/2/2 226/226/226 207/207/207
f 61/61/61 227/227/227 226/226/226
f 56/56/56 207/207/207 227/227/227
f 226/226/226 227/227/227 207/207/207
f 18/18/18 228/228/228 230/230/230
f 62/62/62 229/229/229 228/228/228
f 61/61/61 230/230/230 229/229/229
f 228/228/228 229/229/229 230/230/230
f 17/17/17 212/212/212 232/232/232
f 56/56/56 231/231/231 212/212/212
f 62/62/62 232/232/232 231/231/231
f 212/212/212 231/231/231 232/232/232
f 61/61/61 229/229/229 227/227/227
f 62/62/62 231/231/231 229/229/229
f 56/56/56 227/227/227 231/231/231
f 229/229/229 231/231/231 227/227/227
f 8/8/8 233/233/233 235/235/235
f 63/63/63 234/234/234 233/233/233
f 65/65/65 235/235/235 234/234/234
f 233/233/233 234/234/234 235/235/235
f 19/19/19 236/236/236 238/238/238
f 64/64/64 237/237/237 236/236/236
f 63/63/63 238/238/238 237/237/237
f 236/236/236 237/237/237 238/238/238
f 18/18/18 239/239/239 241/241/241
f 65/65/65 240/240/240 239/239/239
f 64/64/64 241/241/241 240/240/240
f 239/239/239 240/240/240 241/241/241
f 63/63/63 237/237/237 234/234/234
f 64/64/64 240/240/240 237/237/237
f 65/65/65 234/234/234 240/240/240
f 237/237/237 240/240/240 234/234/234
f 17/17/17 232/232/232 221/221/221
f 62/62/62 242/242/242 232/232/232
f 59/59/59 221/221/221 242/242/242
f 232/232/232 242/242/242 221/221/221
f 18/18/18 241/241/241 228/228/228
f 64/64/64 243/243/243 241/241/241
f 62/62/62 228/228/228 243/243/243
f 241/241/241 243/243/243 228/228/228
f 19/19/19 225/225/225 236/236/236
f 59/59/59 244/244/244 225/225/225
f 64/64/64 236/236/236 244/244/244
f 225/225/225 244/244/244 236/236/236
f 62/62/62 243/243/243 242/242/242
f 64/64/64 244/244/244 243/243/243
f 59/59/59 242/242/242 244/244/244
f 243/243/243 244/244/244 242/242/242
f 1/1/1 220/220/220 246/246/246
f 60/60/60 245/245/245 220/220/220
f 67/67/67 246/246/246 245/245/245
f 220/220/220 245/245/245 246/246/246
f 19/19/19 247/247/247 223/223/223
f 66/66/66 248/248/248 247/247/247
f 60/60/60 223/223/223 248/248/248
f 247/247/247 248/248/248 223/223/223
f 21/21/21 249/249/249 251/251/251
f 67/67/67 250/250/250 249/249/249
f 66/66/66 251/251/251 250/250/250
f 249/249/249 250/250/250 251/251/251
f 60/60/60 248/248/248 245/245/245
f 66/66/66 250/250/250 248/248/248
f 67/67/67 245/245/245 250/250/250
f 248/248/248 250/250/250 245/245/245
f 8/8/8 252/252/252 233/233/233
f 68/68/68 253/253/253 252/252/252
f 63/63/63 233/233/233 253/253/253
f 252/252/252 253/253/253 233/233/233
f 20/20/20 254/254/254 256/256/256
f 69/69/69 255/255/255 254/254/254
f 68/68/68 256/256/256 255/255/255
f 254/254/254 255/255/255 256/256/256
f 19/19/19 238/238/238 258/258/258
f 63/63/63 257/257/257 238/238/238
f 69/69/69 258/258/258 257/257/257
f 238/238/238 257/257/257 258/258/258
f 68/68/68 255/255/255 253/253/253
f 69/69/69 257/257/257 255/255/255
f 63/63/63 253/253/253 257/257/257
f 255/255/255 257/257/257 253/253/253
f 11/11/11 259/259/259 261/261/261
f 70/70/70 260/260/260 259/259/259
f 72/72/72 261/261/261 260/260/260
f 259/259/259 260/260/260 261/261/261
f 21/21/21 262/262/262 264/264/264
f 71/71/71 263/263/263 262/262/262
f 70/70/70 264/264/264 263/263/263
f 262/262/262 263/263/263 264/264/264
f 20/20/20 265/265/265 267/267/267
f 72/72/72 266/266/266 265/265/265
f 71/71/71 267/267/267 266/266/266
f 265/265/265 266/266/266 267/267/267
f 70/70/70 263/263/263 260/260/260
f 71/71/71 266/266/266 263/263/263
f 72/72/72 260/260/260 266/266/266
f 263/263/263 266/266/266 260/260/260
f 19/19/19 258/258/258 247/247/247
f 69/69/69 268/268/268 258/258/258
f 66/66/66 247/247/247 268/268/268
f 258/258/258 268/268/268 247/247/247
f 20/20/20 267/267/267 254/254/254
f 71/71/71 269/269/269 267/267/267
f 69/69/69 254/254/254 269/269/269
f 267/267/267 269/269/269 254/254/254
f 21/21/21 251/251/251 262/262/262
f 66/66/66 270/270/270 251/251/251
f 71/71/71 262/262/262 270/270/270
f 251/251/251 270/270/270 262/262/262
f 69/69/69 269/269/269 268/268/268
f 71/71/71 270/270/270 269/269/269
f 66/66/66 268/268/268 270/270/270
f 269/269/269 270/270/270 268/268/268
f 1/1/1 246/246/246 163/163/163
f 67/67/67 271/271/271 246/246/246
f 43/43/43 163/163/163 271/271/271
f 246/246/246 271/271/271 163/163/163
f 21/21/21 272/272/272 249/249/249
f 73/73/73 273/273/273 272/272/272
f 67/67/67 249/249/249 273/273/273
f 272/272/272 273/273/273 249/249/249
f 13/13/13 168/168/168 275/275/275
f 43/43/43 274/274/274 168/168/168
f 73/73/73 275/275/275 274/274/274
f 168/168/168 274/274/274 275/275/275
f 67/67/67 273/273/273 271/271/271
f 73/73/73 274/274/274 273/273/273
f 43/43/43 271/271/271 274/274/274
f 273/273/273 274/274/274 271/271/271
f 11/11/11 276/276/276 259/259/259
f 74/74/74 277/277/277 276/276/276
f 70/70/70 259/259/259 277/277/277
f 276/276/276 277/277/277 259/259/259
f 22/22/22 278/278/278 280/280/280
f 75/75/75 279/279/279 278/278/278
f 74/74/74 280/280/280 279/279/279
f 278/278/278 279/279/279 280/280/280
f 21/21/21 264/264/264 282/282/282
f 70/70/70 281/281/281 264/264/264
f 75/75/75 282/282/282 281/281/281
f 264/264/264 281/281/281 282/282/282
f 74/74/74 279/279/279 277/277/277
f 75/75/75 281/281/281 279/279/279
f 70/70/70 277/277/277 281/281/281
f 279/279/279 281/281/281 277/277/277
f 12/12/12 174/174/174 284/284/284
f 48/48/48 283/283/283 174/174/174
f 77/77/77 284/284/284 283/283/283
f 174/174/174 283/283/283 284/284/284
f 13/13/13 285/285/285 178/178/178
f 76/76/76 286/286/286 285/285/285
f 48/48/48 178/178/178 286/286/286
f 285/285/285 286/286/286 178/178/178
f 22/22/22 287/287/287 289/289/289
f 77/77/77 288/288/288 287/287/287
f 76/76/76 289/289/289 288/288/288
f 287/287/287 288/288/288 289/289/289
f 48/48/48 286/286/286 283/283/283
f 76/76/76 288/288/288 286/286/286
f 77/77/77 283/283/283 288/288/288
f 286/286/286 288/288/288 283/283/283
f 21/21/21 282/282/282 272/272/272
f 75/75/75 290/290/290 282/282/282
f 73/73/73 272/272/272 290/290/290
f 282/282/282 290/290/290 272/272/272
f 22/22/22 289/289/289 278/278/278
f 76/76/76 291/291/291 289/289/289
f 75/75/75 278/278/278 291/291/291
f 289/289/289 291/291/291 278/278/278
f 13/13/13 275/275/275 285/285/285
f 73/73/73 292/292/292 275/275/275
f 76/76/76 285/285/285 292/292/292
f 275/275/275 292/292/292 285/285/285
f 75/75/75 291/291/291 290/290/290
f 76/76/76 292/292/292 291/291/291
f 73/73/73 290/290/290 292/292/292
f 291/291/291 292/292/292 290/290/290
f 2/2/2 209/209/209 294/294/294
f 58/58/58 293/293/293 209/209/209
f 79/79/79 294/294/294 293/293/293
f 209/209/209 293/293/293 294/294/294
f 16/16/16 295/295/295 213/213/213
f 78/78/78 296/296/296 295/295/295
f 58/58/58 213/213/213 296/296/296
f 295/295/295 296/296/296 213/213/213
f 24/24/24 297/297/297 299/299/299
f 79/79/79 298/298/298 297/297/297
f 78/78/78 299/299/299 298/298/298
f 297/297/297 298/298/298 299/299/299
f 58/58/58 296/296/296 293/293/293
f 78/78/78 298/298/298 296/296/296
f 79/79/79 293/293/293 298/298/298
f 296/296/296 298/298/298 293/293/293
f 6/6/6 300/300/300 200/200/200
f 80/80/80 301/301/301 300/300/300
f 54/54/54 200/200/200 301/301/301
f 300/300/300 301/301/301 200/200/200
f 23/23/23 302/302/302 304/304/304
f 81/81/81 303/303/303 302/302/302
f 80/80/80 304/304/304 303/303/303
f 302/302/302 303/303/303 304/304/304
f 16/16/16 204/204/204 306/306/306
f 54/54/54 305/305/305 204/204/204
f 81/81/81 306/306/306 305/305/305
f 204/204/204 305/305/305 306/306/306
f 80/80/80 303/303/303 301/301/301
f 81/81/81 305/305/305 303/303/303
f 54/54/54 301/301/301 305/305/305
f 303/303/303 305/305/305 301/301/301
f 10/10/10 307/307/307 309/309/309
f 82/82/82 308/308/308 307/307/307
f 84/84/84 309/309/309 308/308/308
f 307/307/307 308/308/308 309/309/309
f 24/24/24 310/310/310 312/312/312
f 83/83/83 311/311/311 310/310/310
f 82/82/82 312/312/312 311/311/311
f 310/310/310 311/311/311 312/312/312
f 23/23/23 313/313/313 315/315/315
f 84/84/84 314/314/314 313/313/313
f 83/83/83 315/315/315 314/314/314
f 313/313/313 314/314/314 315/315/315
f 82/82/82 311/311/311 308/308/308
f 83/83/83 314/314/314 311/311/311
f 84/84/84 308/308/308 314/314/314
f 311/311/311 314/314/314 308/308/308
f 16/16/16 306/306/306 295/295/295
f 81/81/81 316/316/316 306/306/306
f 78/78/78 295/295/295 316/316/316
f 306/306/306 316/316/316 295/295/295
f 23/23/23 315/315/315 302/302/302
f 83/83/83 317/317/317 315/315/315
f 81/81/81 302/302/302 317/317/317
f 315/315/315 317/317/317 302/302/302
f 24/24/24 299/299/299 310/310/310
f 78/78/78 318/318/318 299/299/299
f 83/83/83 310/310/310 318/318/318
f 299/299/299 318/318/318 310/310/310
f 81/81/81 317/317/317 316/316/316
f 83/83/83 318/318/318 317/317/317
f 78/78/78 316/316/316 318/318/318
f 317/317/317 318/318/318 316/316/316
f 6/6/6 183/183/183 320/320/320
f 51/51/51 319/319/319 183/183/183
f 86/86/86 320/320/320 319/319/319
f 183/183/183 319/319/319 320/320/320
f 14/14/14 321/321/321 187/187/187
f 85/85/85 322/322/322 321/321/321
f 51/51/51 187/187/187 322/322/322
f 321/321/321 322/322/322 187/187/187
f 26/26/26 323/323/323 325/325/325
f 86/86/86 324/324/324 323/323/323
f 85/85/85 325/325/325 324/324/324
f 323/323/323 324/324/324 325/325/325
f 51/51/51 322/322/322 319/319/319
f 85/85/85 324/324/324 322/322/322
f 86/86/86 319/319/319 324/324/324
f 322/322/322 324/324/324 319/319/319
f 12/12/12 326/326/326 172/172/172
f 87/87/87 327/327/327 326/326/326
f 46/46/46 172/172/172 327/327/327
f 326/326/326 327/327/327 172/172/172
f 25/25/25 328/328/328 330/330/330
f 88/88/88 329/329/329 328/328/328
f 87/87/87 330/330/330 329/329/329
f 328/328/328 329/329/329 330/330/330
f 14/14/14 177/177/177 332/332/332
f 46/46/46 331/331/331 177/177/177
f 88/88/88 332/332/332 331/331/331
f 177/177/177 331/331/331 332/332/332
f 87/87/87 329/329/329 327/327/327
f 88/88/88 331/331/331 329/329/329
f 46/46/46 327/327/327 331/331/331
f 329/329/329 331/331/331 327/327/327
f 5/5/5 333/333/333 335/335/335
f 89/89/89 334/334/334 333/333/333
f 91/91/91 335/335/335 334/334/334
f 333/333/333 334/334/334 335/335/335
f 26/26/26 336/336/336 338/338/338
f 90/90/90 337/337/337 336/336/336
f 89/89/89 338/338/338 337/337/337
f 336/336/336 337/337/337 338/338/338
f 25/25/25 339/339/339 341/341/341
f 91/91/91 340/340/340 339/339/339
f 90/90/90 341/341/341 340/340/340
f 339/339/339 340/340/340 341/341/341
f 89/89/89 337/337/337 334/334/334
f 90/90/90 340/340/340 337/337/337
f 91/91/91 334/334/334 340/340/340
f 337/337/337 340/340/340 334/334/334
f 14/14/14 332/332/332 321/321/321
f 88/88/88 342/342/342 332/332/332
f 85/85/85 321/321/321 342/342/342
f 332/332/332 342/342/342 321/321/321
f 25/25/25 341/341/341 328/328/328
f 90/90/90 343/343/343 341/341/341
f 88/88/88 328/328/328 343/343/343
f 341/341/341 343/343/343 328/328/328
f 26/26/26 325/325/325 336/336/336
f 85/85/85 344/344/344 325/325/325
f 90/90/90 336/336/336 344/344/344
f 325/325/325 344/344/344 336/336/336
f 88/88/88 343/343/343 342/342/342
f 90/90/90 344/344/344 343/343/343
f 85/85/85 342/342/342 344/344/344
f 343/343/343 344/344/344 342/342/342
f 12/12/12 284/284/284 346/346/346
f 77/77/77 345/345/345 284/284/284
f 93/93/93 346/346/346 345/345/345
f 284/284/284 345/345/345 346/346/346
f 22/22/22 347/347/347 287/287/287
f 92/92/92 348/348/348 347/347/347
f 77/77/77 287/287/287 348/348/348
f 347/347/347 348/348/348 287/287/287
f 28/28/28 349/349/349 351/351/351
f 93/93/93 350/350/350 349/349/349
f 92/92/92 351/351/351 350/350/350
f 349/349/349 350/350/350 351/351/351
f 77/77/77 348/348/348 345/345/345
f 92/92/92 350/350/350 348/348/348
f 93/93/93 345/345/345 350/350/350
f 348/348/348 350/350/350 345/345/345
f 11/11/11 352/352/352 276/276/276
f 94/94/94 353/353/353 352/352/352
f 74/74/74 276/276/276 353/353/353
f 352/352/352 353/353/353 276/276/276
f 27/27/27 354/354/354 356/356/356
f 95/95/95 355/355/355 354/354/354
f 94/94/94 356/356/356 355/355/355
f 354/354/354 355/355/355 356/356/356
f 22/22/22 280/280/280 358/358/358
f 74/74/74 357/357/357 280/280/280
f 95/95/95 358/358/358 357/357/357
f 280/280/280 357/357/357 358/358/358
f 94/94/94 355/355/355 353/353/353
f 95/95/95 357/357/357 355/355/355
f 74/74/74 353/353/353 357/357/357
f 355/355/355 357/357/357 353/353/353
f 3/3/3 359/359/359 361/361/361
f 96/96/96 360/360/360 359/359/359
f 98/98/98 361/361/361 360/360/360
f 359/359/359 360/360/360 361/361/361
f 28/28/28 362/362/362 364/364/364
f 97/97/97 363/363/363 362/362/362
f 96/96/96 364/364/364 363/363/363
f 362/362/362 363/363/363 364/364/364
f 27/27/27 365/365/365 367/367/367
f 98/98/98 366/366/366 365/365/365
f 97/97/97 367/367/367 366/366/366
f 365/365/365 366/366/366 367/367/367
f 96/96/96 363/363/363 360/360/360
f 97/97/97 366/366/366 363/363/363
f 98/98/98 360/360/360 366/366/366
f 363/363/363 366/366/366 360/360/360
f 22/22/22 358/358/358 347/347/347
f 95/95/95 368/368/368 358/358/358
f 92/92/92 347/347/347 368/368/368
f 358/358/358 368/368/368 347/347/347
f 27/27/27 367/367/367 354/354/354
f 97/97/97 369/369/369 367/367/367
f 95/95/95 354/354/354 369/369/369
f 367/367/367 369/369/369 354/354/354
f 28/28/28 351/351/351 362/362/362
f 92/92/92 370/370/370 351/351/351
f 97/97/97 362/362/362 370/370/370
f 351/351/351 370/370/370 362/362/362
f 95/95/95 369/369/369 368/368/368
f 97/97/97 370/370/370 369/369/369
f 92/92/92 368/368/368 370/370/370
f 369/369/369 370/370/370 368/368/368
f 11/11/11 261/261/261 372/372/372
f 72/72/72 371/371/371 261/261/261
f 100/100/100 372/372/372 371/371/371
f 261/261/261 371/371/371 372/372/372
f 20/20/20 373/373/373 265/265/265
f 99/99/99 374/374/374 373/373/373
f 72/72/72 265/265/265 374/374/374
f 373/373/373 374/374/374 265/265/265
f 30/30/30 375/375/375 377/377/377
f 100/100/100 376/376/376 375/375/375
f 99/99/99 377/377/377 376/376/376
f 375/375/375 376/376/376 377/377/377
f 72/72/72 374/374/374 371/371/371
f 99/99/99 376/376/376 374/374/374
f 100/100/100 371/371/371 376/376/376
f 374/374/374 376/376/376 371/371/371
f 8/8/8 378/378/378 252/252/252
f 101/101/101 379/379/379 378/378/378
f 68/68/68 252/252/252 379/379/379
f 378/378/378 379/379/379 252/252/252
f 29/29/29 380/380/380 382/382/382
f 102/102/102 381/381/381 380/380/380
f 101/101/101 382/382/382 381/381/381
f 380/380/380 381/381/381 382/382/382
f 20/20/20 256/256/256 384/384/384
f 68/68/68 383/383/383 256/256/256
f 102/102/102 384/384/384 383/383/383
f 256/256/256 383/383/383 384/384/384
f 101/101/101 381/381/381 379/379/379
f 102/102/102 383/383/383 381/381/381
f 68/68/68 379/379/379 383/383/383
f 381/381/381 383/383/383 379/379/379
f 7/7/7 385/385/385 387/387/387
f 103/103/103 386/386/386 385/385/385
f 105/105/105 387/387/387 386/386/386
f 385/385/385 386/386/386 387/387/387
f 30/30/30 388/388/388 390/390/390
f 104/104/104 389/389/389 388/388/388
f 103/103/103 390/390/390 389/389/389
f 388/388/388 389/389/389 390/390/390
f 29/29/29 391/391/391 393/393/393
f 105/105/105 392/392/392 391/391/391
f 104/104/104 393/393/393 392/392/392
f 391/391/391 392/392/392 393/393/393
f 103/103/103 389/389/389 386/386/386
f 104/104/104 392/392/392 389/389/389
f 105/105/105 386/386/386 392/392/392
f 389/389/389 392/392/392 386/386/386
f 20/20/20 384/384/384 373/373/373
f 102/102/102 394/394/394 384/384/384
f 99/99/99 373/373/373 394/394/394
f 384/384/384 394/394/394 373/373/373
f 29/29/29 393/393/393 380/380/380
f 104/104/104 395/395/395 393/393/393
f 102/102/102 380/380/380 395/395/395
f 393/393/393 395/395/395 380/380/380
f 30/30/30 377/377/377 388/388/388
f 99/99/99 396/396/396 377/377/377
f 104/104/104 388/388/388 396/396/396
f 377/377/377 396/396/396 388/388/388
f 102/102/102 395/395/395 394/394/394
f 104/104/104 396/396/396 395/395/395
f 99/99/99 394/394/394 396/396/396
f 395/395/395 396/396/396 394/394/394
f 8/8/8 235/235/235 398/398/398
f 65/65/65 397/397/397 235/235/235
f 107/107/107 398/398/398 397/397/397
f 235/235/235 397/397/397 398/398/398
f 18/18/18 399/399/399 239/239/239
f 106/106/106 400/400/400 399/399/399
f 65/65/65 239/239/239 400/400/400
f 399/399/399 400/400/400 239/239/239
f 32/32/32 401/401/401 403/403/403
f 107/107/107 402/402/402 401/401/401
f 106/106/106 403/403/403 402/402/402
f 401/401/401 402/402/402 403/403/403
f 65/65/65 400/400/400 397/397/397
f 106/106/106 402/402/402 400/400/400
f 107/107/107 397/397/397 402/402/402
f 400/400/400 402/402/402 397/397/397
f 2/2/2 404/404/404 226/226/226
f 108/108/108 405/405/405 404/404/404
f 61/61/61 226/226/226 405/405/405
f 404/404/404 405/405/405 226/226/226
f 31/31/31 406/406/406 408/408/408
f 109/109/109 407/407/407 406/406/406
f 108/108/108 408/408/408 407/407/407
f 406/406/406 407/407/407 408/408/408
f 18/18/18 230/230/230 410/410/410
f 61/61/61 409/409/409 230/230/230
f 109/109/109 410/410/410 409/409/409
f 230/230/230 409/409/409 410/410/410
f 108/108/108 407/407/407 405/405/405
f 109/109/109 409/409/409 407/407/407
f 61/61/61 405/405/405 409/409/409
f 407/407/407 409/409/409 405/405/405
f 9/9/9 411/411/411 413/413/413
f 110/110/110 412/412/412 411/411/411
f 112/112/112 413/413/413 412/412/412
f 411/411/411 412/412/412 413/413/413
f 32/32/32 414/414/414 416/416/416
f 111/111/111 415/415/415 414/414/414
f 110/110/110 416/416/416 415/415/415
f 414/414/414 415/415/415 416/416/416
f 31/31/31 417/417/417 419/419/419
f 112/112/112 418/418/418 417/417/417
f 111/111/111 419/419/419 418/418/418
f 417/417/417 418/418/418 419/419/419
f 110/110/110 415/415/415 412/412/412
f 111/111/111 418/418/418 415/415/415
f 112/112/112 412/412/412 418/418/418
f 415/415/415 418/418/418 412/412/412
f 18/18/18 410/410/410 399/399/399
f 109/109/109 420/420/420 410/410/410
f 106/106/106 399/399/399 420/420/420
f 410/410/410 420/420/420 399/399/399
f 31/31/31 419/419/419 406/406/406
f 111/111/111 421/421/421 419/419/419
f 109/109/109 406/406/406 421/421/421
f 419/419/419 421/421/421 406/406/406
f 32/32/32 403/403/403 414/414/414
f 106/106/106 422/422/422 403/403/403
f 111/111/111 414/414/414 422/422/422
f 403/403/403 422/422/422 414/414/414
f 109/109/109 421/421/421 420/420/420
f 111/111/111 422/422/422 421/421/421
f 106/106/106 420/420/420 422/422/422
f 421/421/421 422/422/422 420/420/420
f 4/4/4 423/423/423 425/425/425
f 113/113/113 424/424/424 423/423/423
f 115/115/115 425/425/425 424/424/424
f 423/423/423 424/424/424 425/425/425
f 33/33/33 426/426/426 428/428/428
f 114/114/114 427/427/427 426/426/426
f 113/113/113 428/428/428 427/427/427
f 426/426/426 427/427/427 428/428/428
f 35/35/35 429/429/429 431/431/431
f 115/115/115 430/430/430 429/429/429
f 114/114/114 431/431/431 430/430/430
f 429/429/429 430/430/430 431/431/431
f 113/113/113 427/427/427 424/424/424
f 114/114/114 430/430/430 427/427/427
f 115/115/115 424/424/424 430/430/430
f 427/427/427 430/430/430 424/424/424
f 10/10/10 432/432/432 434/434/434
f 116/116/116 433/433/433 432/432/432
f 118/118/118 434/434/434 433/433/433
f 432/432/432 433/433/433 434/434/434
f 34/34/34 435/435/435 437/437/437
f 117/117/117 436/436/436 435/435/435
f 116/116/116 437/437/437 436/436/436
f 435/435/435 436/436/436 437/437/437
f 33/33/33 438/438/438 440/440/440
f 118/118/118 439/439/439 438/438/438
f 117/117/117 440/440/440 439/439/439
f 438/438/438 439/439/439 440/440/440
f 116/116/116 436/436/436 433/433/433
f 117/117/117 439/439/439 436/436/436
f 118/118/118 433/433/433 439/439/439
f 436/436/436 439/439/439 433/433/433
f 5/5/5 441/441/441 443/443/443
f 119/119/119 442/442/442 441/441/441
f 121/121/121 443/443/443 442/442/442
f 441/441/441 442/442/442 443/443/443
f 35/35/35 444/444/444 446/446/446
f 120/120/120 445/445/445 444/444/444
f 119/119/119 446/446/446 445/445/445
f 444/444/444 445/445/445 446/446/446
f 34/34/34 447/447/447 449/449/449
f 121/121/121 448/448/448 447/447/447
f 120/120/120 449/449/449 448/448/448
f 447/447/447 448/448/448 449/449/449
f 119/119/119 445/445/445 442/442/442
f 120/120/120 448/448/448 445/445/445
f 121/121/121 442/442/442 448/448/448
f 445/445/445 448/448/448 442/442/442
f 33/33/33 440/440/440 426/426/426
f 117/117/117 450/450/450 440/440/440
f 114/114/114 426/426/426 450/450/450
f 440/440/440 450/450/450 426/426/426
f 34/34/34 449/449/449 435/435/435
f 120/120/120 451/451/451 449/449/449
f 117/117/117 435/435/435 451/451/451
f 449/449/449 451/451/451 435/435/435
f 35/35/35 431/431/431 444/444/444
f 114/114/114 452/452/452 431/431/431
f 120/120/120 444/444/444 452/452/452
f 431/431/431 452/452/452 444/444/444
f 117/117/117 451/451/451 450/450/450
f 120/120/120 452/452/452 451/451/451
f 114/114/114 450/450/450 452/452/452
f 451/451/451 452/452/452 450/450/450
f 4/4/4 425/425/425 454/454/454
f 115/115/115 453/453/453 425/425/425
f 123/123/123 454/454/454 453/453/453
f 425/425/425 453/453/453 454/454/454
f 35/35/35 455/455/455 429/429/429
f 122/122/122 456/456/456 455/455/455
f 115/115/115 429/429/429 456/456/456
f 455/455/455 456/456/456 429/429/429
f 37/37/37 457/457/457 459/459/459
f 123/123/123 458/458/458 457/457/457
f 122/122/122 459/459/459 458/458/458
f 457/457/457 458/458/458 459/459/459
f 115/115/115 456/456/456 453/453/453
f 122/122/122 458/458/458 456/456/456
f 123/123/123 453/453/453 458/458/458
f 456/456/456 458/458/458 453/453/453
f 5/5/5 460/460/460 441/441/441
f 124/124/124 461/461/461 460/460/460
f 119/119/119 441/441/441 461/461/461
f 460/460/460 461/461/461 441/441/441
f 36/36/36 462/462/462 464/464/464
f 125/125/125 463/463/463 462/462/462
f 124/124/124 464/464/464 463/463/463
f 462/462/462 463/463/463 464/464/464
f 35/35/35 446/446/446 466/466/466
f 119/119/119 465/465/465 446/446/446
f 125/125/125 466/466/466 465/465/465
f 446/446/446 465/465/465 466/466/466
f 124/124/124 463/463/463 461/461/461
f 125/125/125 465/465/465 463/463/463
f 119/119/119 461/461/461 465/465/465
f 463/463/463 465/465/465 461/461/461
f 3/3/3 467/467/467 469/469/469
f 126/126/126 468/468/468 467/467/467
f 128/128/128 469/469/469 468/468/468
f 467/467/467 468/468/468 469/469/469
f 37/37/37 470/470/470 472/472/472
f 127/127/127 471/471/471 470/470/470
f 126/126/126 472/472/472 471/471/471
f 470/470/470 471/471/471 472/472/472
f 36/36/36 473/473/473 475/475/475
f 128/128/128 474/474/474 473/473/473
f 127/127/127 475/475/475 474/474/474
f 473/473/473 474/474/474 475/475/475
f 126/126/126 471/471/471 468/468/468
f 127/127/127 474/474/474 471/471/471
f 128/128/128 468/468/468 474/474/474
f 471/471/471 474/474/474 468/468/468
f 35/35/35 466/466/466 455/455/455
f 125/125/125 476/476/476 466/466/466
f 122/122/122 455/455/455 476/476/476
f 466/466/466 476/476/476 455/455/455
f 36/36/36 475/475/475 462/462/462
f 127/127/127 477/477/477 475/475/475
f 125/125/125 462/462/462 477/477/477
f 475/475/475 477/477/477 462/462/462
f 37/37/37 459/459/459 470/470/470
f 122/122/122 478/478/478 459/459/459
f 127/127/127 470/470/470 478/478/478
f 459/459/459 478/478/478 470/470/470
f 125/125/125 477/477/477 476/476/476
f 127/127/127 478/478/478 477/477/477
f 122/122/122 476/476/476 478/478/478
f 477/477/477 478/478/478 476/476/476
f 4/4/4 454/454/454 480/480/480
f 123/123/123 479/479/479 454/454/454
f 130/130/130 480/480/480 479/479/479
f 454/454/454 479/479/479 480/480/480
f 37/37/37 481/481/481 457/457/457
f 129/129/129 482/482/482 481/481/481
f 123/123/123 457/457/457 482/482/482
f 481/481/481 482/482/482 457/457/457
f 39/39/39 483/483/483 485/485/485
f 130/130/130 484/484/484 483/483/483
f 129/129/129 485/485/485 484/484/484
f 483/483/483 484/484/484 485/485/485
f 123/123/123 482/482/482 479/479/479
f 129/129/129 484/484/484 482/482/482
f 130/130/130 479/479/479 484/484/484
f 482/482/482 484/484/484 479/479/479
f 3/3/3 486/486/486 467/467/467
f 131/131/131 487/487/487 486/486/486
f 126/126/126 467/467/467 487/487/487
f 486/486/486 487/487/487 467/467/467
f 38/38/38 488/488/488 490/490/490
f 132/132/132 489/489/489 488/488/488
f 131/131/131 490/490/490 489/489/489
f 488/488/488 489/489/489 490/490/490
f 37/37/37 472/472/472 492/492/492
f 126/126/126 491/491/491 472/472/472
f 132/132/132 492/492/492 491/491/491
f 472/472/472 491/491/491 492/492/492
f 131/131/131 489/489/489 487/487/487
f 132/132/132 491/491/491 489/489/489
f 126/126/126 487/487/487 491/491/491
f 489/489/489 491/491/491 487/487/487
f 7/7/7 493/493/493 495/495/495
f 133/133/133 494/494/494 493/493/493
f 135/135/135 495/495/495 494/494/494
f 493/493/493 494/494/494 495/495/495
f 39/39/39 496/496/496 498/498/498
f 134/134/134 497/497/497 496/496/496
f 133/133/133 498/498/498 497/497/497
f 496/496/496 497/497/497 498/498/498
f 38/38/38 499/499/499 501/501/501
f 135/135/135 500/500/500 499/499/499
f 134/134/134 501/501/501 500/500/500
f 499/499/499 500/500/500 501/501/501
f 133/133/133 497/497/497 494/494/494
f 134/134/134 500/500/500 497/497/497
f 135/135/135 494/494/494 500/500/500
f 497/497/497 500/500/500 494/494/494
f 37/37/37 492/492/492 481/481/481
f 132/132/132 502/502/502 492/492/492
f 129/129/129 481/481/481 502/502/502
f 492/492/492 502/502/502 481/481/481
f 38/38/38 501/501/501 488/488/488
f 134/134/134 503/503/503 501/501/501
f 132/132/132 488/488/488 503/503/503
f 501/501/501 503/503/503 488/488/488
f 39/39/39 485/485/485 496/496/496
f 129/129/129 504/504/504 485/485/485
f 134/134/134 496/496/496 504/504/504
f 485/485/485 504/504/504 496/496/496
f 132/132/132 503/503/503 502/502/502
f 134/134/134 504/504/504 503/503/503
f 129/129/129 502/502/502 504/504/504
f 503/503/503 504/504/504 502/502/502
f 4/4/4 480/480/480 506/506/506
f 130/130/130 505/505/505 480/480/480
f 137/137/137 506/506/506 505/505/505
f 480/480/480 505/505/505 506/506/506
f 39/39/39 507/507/507 483/483/483
f 136/136/136 508/508/508 507/507/507
f 130/130/130 483/483/483 508/508/508
f 507/507/507 508/508/508 483/483/483
f 41/41/41 509/509/509 511/511/511
f 137/137/137 510/510/510 509/509/509
f 136/136/136 511/511/511 510/510/510
f 509/509/509 510/510/510 511/511/511
f 130/130/130 508/508/508 505/505/505
f 136/136/136 510/510/510 508/508/508
f 137/137/137 505/505/505 510/510/510
f 508/508/508 510/510/510 505/505/505
f 7/7/7 512/512/512 493/493/493
f 138/138/138 513/513/513 512/512/512
f 133/133/133 493/493/493 513/513/513
f 512/512/512 513/513/513 493/493/493
f 40/40/40 514/514/514 516/516/516
f 139/139/139 515/515/515 514/514/514
f 138/138/138 516/516/516 515/515/515
f 514/514/514 515/515/515 516/516/516
f 39/39/39 498/498/498 518/518/518
f 133/133/133 517/517/517 498/498/498
f 139/139/139 518/518/518 517/517/517
f 498/498/498 517/517/517 518/518/518
f 138/138/138 515/515/515 513/513/513
f 139/139/139 517/517/517 515/515/515
f 133/133/133 513/513/513 517/517/517
f 515/515/515 517/517/517 513/513/513
f 9/9/9 519/519/519 521/521/521
f 140/140/140 520/520/520 519/519/519
f 142/142/142 521/521/521 520/520/520
f 519/519/519 520/520/520 521/521/521
f 41/41/41 522/522/522 524/524/524
f 141/141/141 523/523/523 522/522/522
f 140/140/140 524/524/524 523/523/523
f 522/522/522 523/523/523 524/524/524
f 40/40/40 525/525/525 527/527/527
f 142/142/142 526/526/526 525/525/525
f 141/141/141 527/527/527 526/526/526
f 525/525/525 526/526/526 527/527/527
f 140/140/140 523/523/523 520/520/520
f 141/141/141 526/526/526 523/523/523
f 142/142/142 520/520/520 526/526/526
f 523/523/523 526/526/526 520/520/520
f 39/39/39 518/518/518 507/507/507
f 139/139/139 528/528/528 518/518/518
f 136/136/136 507/507/507 528/528/528
f 518/518/518 528/528/528 507/507/507
f 40/40/40 527/527/527 514/514/514
f 141/141/141 529/529/529 527/527/527
f 139/139/139 514/514/514 529/529/529
f 527/527/527 529/529/529 514/514/514
f 41/41/41 511/511/511 522/522/522
f 136/136/136 530/530/530 511/511/511
f 141/141/141 522/522/522 530/530/530
f 511/511/511 530/530/530 522/522/522
f 139/139/139 529/529/529 528/528/528
f 141/141/141 530/530/530 529/529/529
f 136/136/136 528/528/528 530/530/530
f 529/529/529 530/530/530 528/528/528
f 4/4/4 506/506/506 423/423/423
f 137/137/137 531/531/531 506/506/506
f 113/113/113 423/423/423 531/531/531
f 506/506/506 531/531/531 423/423/423
f 41/41/41 532/532/532 509/509/509
f 143/143/143 533/533/533 532/532/532
f 137/137/137 509/509/509 533/533/533
f 532/532/532 533/533/533 509/509/509
f 33/33/33 428/428/428 535/535/535
f 113/113/113 534/534/534 428/428/428
f 143/143/143 535/535/535 534/534/534
f 428/428/428 534/534/534 535/535/535
f 137/137/137 533/533/533 531/531/531
f 143/143/143 534/534/534 533/533/533
f 113/113/113 531/531/531 534/534/534
f 533/533/533 534/534/534 531/531/531
f 9/9/9 536/536/536 519/519/519
f 144/144/144 537/537/537 536/536/536
f 140/140/140 519/519/519 537/537/537
f 536/536/536 537/537/537 519/519/519
f 42/42/42 538/538/538 540/540/540
f 145/145/145 539/539/539 538/538/538
f 144/144/144 540/540/540 539/539/539
f 538/538/538 539/539/539 540/540/540
f 41/41/41 524/524/524 542/542/542
f 140/140/140 541/541/541 524/524/524
f 145/145/145 542/542/542 541/541/541
f 524/524/524 541/541/541 542/542/542
f 144/144/144 539/539/539 537/537/537
f 145/145/145 541/541/541 539/539/539
f 140/140/140 537/537/537 541/541/541
f 539/539/539 541/541/541 537/537/537
f 10/10/10 434/434/434 544/544/544
f 118/118/118 543/543/543 434/434/434
f 147/147/147 544/544/544 543/543/543
f 434/434/434 543/543/543 544/544/544
f 33/33/33 545/545/545 438/438/438
f 146/146/146 546/546/546 545/545/545
f 118/118/118 438/438/438 546/546/546
f 545/545/545 546/546/546 438/438/438
f 42/42/42 547/547/547 549/549/549
f 147/147/147 548/548/548 547/547/547
f 146/146/146 549/549/549 548/548/548
f 547/547/547 548/548/548 549/549/549
f 118/118/118 546/546/546 543/543/543
f 146/146/146 548/548/548 546/546/546
f 147/147/147 543/543/543 548/548/548
f 546/546/546 548/548/548 543/543/543
f 41/41/41 542/542/542 532/532/532
f 145/145/145 550/550/550 542/542/542
f 143/143/143 532/532/532 550/550/550
f 542/542/542 550/550/550 532/532/532
f 42/42/42 549/549/549 538/538/538
f 146/146/146 551/551/551 549/549/549
f 145/145/145 538/538/538 551/551/551
f 549/549/549 551/551/551 538/538/538
f 33/33/33 535/535/535 545/545/545
f 143/143/143 552/552/552 535/535/535
f 146/146/146 545/545/545 552/552/552
f 535/535/535 552/552/552 545/545/545
f 145/145/145 551/551/551 550/550/550
f 146/146/146 552/552/552 551/551/551
f 143/143/143 550/550/550 552/552/552
f 551/551/551 552/552/552 550/550/550
f 5/5/5 443/443/443 333/333/333
f 121/121/121 553/553/553 443/443/443
f 89/89/89 333/333/333 553/553/553
f 443/443/443 553/553/553 333/333/333
f 34/34/34 554/554/554 447/447/447
f 148/148/148 555/555/555 554/554/554
f 121/121/121 447/447/447 555/555/555
f 554/554/554 555/555/555 447/447/447
f 26/26/26 338/338/338 557/557/557
f 89/89/89 556/556/556 338/338/338
f 148/148/148 557/557/557 556/556/556
f 338/338/338 556/556/556 557/557/557
f 121/121/121 555/555/555 553/553/553
f 148/148/148 556/556/556 555/555/555
f 89/89/89 553/553/553 556/556/556
f 555/555/555 556/556/556 553/553/553
f 10/10/10 309/309/309 432/432/432
f 84/84/84 558/558/558 309/309/309
f 116/116/116 432/432/432 558/558/558
f 309/309/309 558/558/558 432/432/432
f 23/23/23 559/559/559 313/313/313
f 149/149/149 560/560/560 559/559/559
f 84/84/84 313/313/313 560/560/560
f 559/559/559 560/560/560 313/313/313
f 34/34/34 437/437/437 562/562/562
f 116/116/116 561/561/561 437/437/437
f 149/149/149 562/562/562 561/561/561
f 437/437/437 561/561/561 562/562/562
f 84/84/84 560/560/560 558/558/558
f 149/149/149 561/561/561 560/560/560
f 116/116/116 558/558/558 561/561/561
f 560/560/560 561/561/561 558/558/558
f 6/6/6 320/320/320 300/300/300
f 86/86/86 563/563/563 320/320/320
f 80/80/80 300/300/300 563/563/563
f 320/320/320 563/563/563 300/300/300
f 26/26/26 564/564/564 323/323/323
f 150/150/150 565/565/565 564/564/564
f 86/86/86 323/323/323 565/565/565
f 564/564/564 565/565/565 323/323/323
f 23/23/23 304/304/304 567/567/567
f 80/80/80 566/566/566 304/304/304
f 150/150/150 567/567/567 566/566/566
f 304/304/304 566/566/566 567/567/567
f 86/86/86 565/565/565 563/563/563
f 150/150/150 566/566/566 565/565/565
f 80/80/80 563/563/563 566/566/566
f 565/565/565 566/566/566 563/563/563
f 34/34/34 562/562/562 554/554/554
f 149/149/149 568/568/568 562/562/562
f 148/148/148 554/554/554 568/568/568
f 562/562/562 568/568/568 554/554/554
f 23/23/23 567/567/567 559/559/559
f 150/150/150 569/569/569 567/567/567
f 149/149/149 559/559/559 569/569/569
f 567/567/567 569/569/569 559/559/559
f 26/26/26 557/557/557 564/564/564
f 148/148/148 570/570/570 557/557/557
f 150/150/150 564/564/564 570/570/570
f 557/557/557 570/570/570 564/564/564
f 149/149/149 569/569/569 568/568/568
f 150/150/150 570/570/570 569/569/569
f 148/148/148 568/568/568 570/570/570
f 569/569/569 570/570/570 568/568/568
f 3/3/3 469/469/469 359/359/359
f 128/128/128 571/571/571 469/469/469
f 96/96/96 359/359/359 571/571/571
f 469/469/469 571/571/571 359/359/359
f 36/36/36 572/572/572 473/473/473
f 151/151/151 573/573/573 572/572/572
f 128/128/128 473/473/473 573/573/573
f 572/572/572 573/573/573 473/473/473
f 28/28/28 364/364/364 575/575/575
f 96/96/96 574/574/574 364/364/364
f 151/151/151 575/575/575 574/574/574
f 364/364/364 574/574/574 575/575/575
f 128/128/128 573/573/573 571/571/571
f 151/151/151 574/574/574 573/573/573
f 96/96/96 571/571/571 574/574/574
f 573/573/573 574/574/574 571/571/571
f 5/5/5 335/335/335 460/460/460
f 91/91/91 576/576/576 335/335/335
f 124/124/124 460/460/460 576/576/576
f 335/335/335 576/576/576 460/460/460
f 25/25/25 577/577/577 339/339/339
f 152/152/152 578/578/578 577/577/577
f 91/91/91 339/339/339 578/578/578
f 577/577/577 578/578/578 339/339/339
f 36/36/36 464/464/464 580/580/580
f 124/124/124 579/579/579 464/464/464
f 152/152/152 580/580/580 579/579/579
f 464/464/464 579/579/579 580/580/580
f 91/91/91 578/578/578 576/576/576
f 152/152/152 579/579/579 578/578/578
f 124/124/124 576/576/576 579/579/579
f 578/578/578 579/579/579 576/576/576
f 12/12/12 346/346/346 326/326/326
f 93/93/93 581/581/581 346/346/346
f 87/87/87 326/326/326 581/581/581
f 346/346/346 581/581/581 326/326/326
f 28/28/28 582/582/582 349/349/349
f 153/153/153 583/583/583 582/582/582
f 93/93/93 349/349/349 583/583/583
f 582/582/582 583/583/583 349/349/349
f 25/25/25 330/330/330 585/585/585
f 87/87/87 584/584/584 330/330/330
f 153/153/153 585/585/585 584/584/584
f 330/330/330 584/584/584 585/585/585
f 93/93/93 583/583/583 581/581/581
f 153/153/153 584/584/584 583/583/583
f 87/87/87 581/581/581 584/584/584
f 583/583/583 584/584/584 581/581/581
f 36/36/36 580/580/580 572/572/572
f 152/152/152 586/586/586 580/580/580
f 151/151/151 572/572/572 586/586/586
f 580/580/580 586/586/586 572/572/572
f 25/25/25 585/585/585 577/577/577
f 153/153/153 587/587/587 585/585/585
f 152/152/152 577/577/577 587/587/587
f 585/585/585 587/587/587 577/577/577
f 28/28/28 575/575/575 582/582/582
f 151/151/151 588/588/588 575/575/575
f 153/153/153 582/582/582 588/588/588
f 575/575/575 588/588/588 582/582/582
f 152/152/152 587/587/587 586/586/586
f 153/153/153 588/588/588 587/587/587
f 151/151/151 586/586/586 588/588/588
f 587/587/587 588/588/588 586/586/586
f 7/7/7 495/495/495 385/385/385
f 135/135/135 589/589/589 495/495/495
f 103/103/103 385/385/385 589/589/589
f 495/495/495 589/589/589 385/385/385
f 38/38/38 590/590/590 499/499/499
f 154/154/154 591/591/591 590/590/590
f 135/135/135 499/499/499 591/591/591
f 590/590/590 591/591/591 499/499/499
f 30/30/30 390/390/390 593/593/593
f 103/103/103 592/592/592 390/390/390
f 154/154/154 593/593/593 592/592/592
f 390/390/390 592/592/592 593/593/593
f 135/135/135 591/591/591 589/589/589
f 154/154/154 592/592/592 591/591/591
f 103/103/103 589/589/589 592/592/592
f 591/591/591 592/592/592 589/589/589
f 3/3/3 361/361/361 486/486/486
f 98/98/98 594/594/594 361/361/361
f 131/131/131 486/486/486 594/594/594
f 361/361/361 594/594/594 486/486/486
f 27/27/27 595/595/595 365/365/365
f 155/155/155 596/596/596 595/595/595
f 98/98/98 365/365/365 596/596/596
f 595/595/595 596/596/596 365/365/365
f 38/38/38 490/490/490 598/598/598
f 131/131/131 597/597/597 490/490/490
f 155/155/155 598/598/598 597/597/597
f 490/490/490 597/597/597 598/598/598
f 98/98/98 596/596/596 594/594/594
f 155/155/155 597/597/597 596/596/596
f 131/131/131 594/594/594 597/597/597
f 596/596/596 597/597/597 594/594/594
f 11/11/11 372/372/372 352/352/352
f 100/100/100 599/599/599 372/372/372
f 94/94/94 352/352/352 599/599/599
f 372/372/372 599/599/599 352/352/352
f 30/30/30 600/600/600 375/375/375
f 156/156/156 601/601/601 600/600/600
f 100/100/100 375/375/375 601/601/601
f 600/600/600 601/601/601 375/375/375
f 27/27/27 356/356/356 603/603/603
f 94/94/94 602/602/602 356/356/356
f 156/156/156 603/603/603 602/602/602
f 356/356/356 602/602/602 603/603/603
f 100/100/100 601/601/601 599/599/599
f 156/156/156 602/602/602 601/601/601
f 94/94/94 599/599/599 602/602/602
f 601/601/601 602/602/602 599/599/599
f 38/38/38 598/598/598 590/590/590
f 155/155/155 604/604/604 598/598/598
f 154/154/154 590/590/590 604/604/604
f 598/598/598 604/604/604 590/590/590
f 27/27/27 603/603/603 595/595/595
f 156/156/156 605/605/605 603/603/603
f 155/155/155 595/595/595 605/605/605
f 603/603/603 605/605/605 595/595/595
f 30/30/30 593/593/593 600/600/600
f 154/154/154 606/606/606 593/593/593
f 156/156/156 600/600/600 606/606/606
f 593/593/593 606/606/606 600/600/600
f 155/155/155 605/605/605 604/604/604
f 156/156/156 606/606/606 605/605/605
f 154/154/154 604/604/604 606/606/606
f 605/605/605 606/606/606 604/604/604
f 9/9/9 521/521/521 411/411/411
f 142/142/142 607/607/607 521/521/521
f 110/110/110 411/411/411 607/607/607
f 521/521/521 607/607/607 411/411/411
f 40/40/40 608/608/608 525/525/525
f 157/157/157 609/609/609 608/608/608
f 142/142/142 525/525/525 609/609/609
f 608/608/608 609/609/609 525/525/525
f 32/32/32 416/416/416 611/611/611
f 110/110/110 610/610/610 416/416/416
f 157/157/157 611/611/611 610/610/610
f 416/416/416 610/610/610 611/611/611
f 142/142/142 609/609/609 607/607/607
f 157/157/157 610/610/610 609/609/609
f 110/110/110 607/607/607 610/610/610
f 609/609/609 610/610/610 607/607/607
f 7/7/7 387/387/387 512/512/512
f 105/105/105 612/612/612 387/387/387
f 138/138/138 512/512/512 612/612/612
f 387/387/387 612/612/612 512/512/512
f 29/29/29 613/613/613 391/391/391
f 158/158/158 614/614/614 613/613/613
f 105/105/105 391/391/391 614/614/614
f 613/613/613 614/614/614 391/391/391
f 40/40/40 516/516/516 616/616/616
f 138/138/138 615/615/615 516/516/516
f 158/158/158 616/616/616 615/615/615
f 516/516/516 615/615/615 616/616/616
f 105/105/105 614/614/614 612/612/612
f 158/158/158 615/615/615 614/614/614
f 138/138/138 612/612/612 615/615/615
f 614/614/614 615/615/615 612/612/612
f 8/8/8 398/398/398 378/378/378
f 107/107/107 617/617/617 398/398/398
f 101/101/101 378/378/378 617/617/617
f 398/398/398 617/617/617 378/378/378
f 32/32/32 618/618/618 401/401/401
f 159/159/159 619/619/619 618/618/618
f 107/107/107 401/401/401 619/619/619
f 618/618/618 619/619/619 401/401/401
f 29/29/29 382/382/382 621/621/621
f 101/101/101 620/620/620 382/382/382
f 159/159/159 621/621/621 620/620/620
f 382/382/382 620/620/620 621/621/621
f 107/107/107 619/619/619 617/617/617
f 159/159/159 620/620/620 619/619/619
f 101/101/101 617/617/617 620/620/620
f 619/619/619 620/620/620 617/617/617
f 40/40/40 616/616/616 608/608/608
f 158/158/158 622/622/622 616/616/616
f 157/157/157 608/608/608 622/622/622
f 616/616/616 622/622/622 608/608/608
f 29/29/29 621/621/621 613/613/613
f 159/159/159 623/623/623 621/621/621
f 158/158/158 613/613/613 623/623/623
f 621/621/621 623/623/623 613/613/613
f 32/32/32 611/611/611 618/618/618
f 157/157/157 624/624/624 611/611/611
f 159/159/159 618/618/618 624/624/624
f 611/611/611 624/624/624 618/618/618
f 158/158/158 623/623/623 622/622/622
f 159/159/159 624/624/624 623/623/623
f 157/157/157 622/622/622 624/624/624
f 623/623/623 624/624/624 622/622/622
f 10/10/10 544/544/544 307/307/307
f 147/147/147 625/625/625 544/544/544
f 82/82/82 307/307/307 625/625/625
f 544/544/544 625/625/625 307/307/307
f 42/42/42 626/626/626 547/547/547
f 160/160/160 627/627/627 626/626/626
f 147/147/147 547/547/547 627/627/627
f 626/626/626 627/627/627 547/547/547
f 24/24/24 312/312/312 629/629/629
f 82/82/82 628/628/628 312/312/312
f 160/160/160 629/629/629 628/628/628
f 312/312/312 628/628/628 629/629/629
f 147/147/147 627/627/627 625/625/625
f 160/160/160 628/628/628 627/627/627
f 82/82/82 625/625/625 628/628/628
f 627/627/627 628/628/628 625/625/625
f 9/9/9 413/413/413 536/536/536
f 112/112/112 630/630/630 413/413/413
f 144/144/144 536/536/536 630/630/630
f 413/413/413 630/630/630 536/536/536
f 31/31/31 631/631/631 417/417/417
f 161/161/161 632/632/632 631/631/631
f 112/112/112 417/417/417 632/632/632
f 631/631/631 632/632/632 417/417/417
f 42/42/42 540/540/540 634/634/634
f 144/144/144 633/633/633 540/540/540
f 161/161/161 634/634/634 633/633/633
f 540/540/540 633/633/633 634/634/634
f 112/112/112 632/632/632 630/630/630
f 161/161/161 633/633/633 632/632/632
f 144/144/144 630/630/630 633/633/633
f 632/632/632 633/633/633 630/630/630
f 2/2/2 294/294/294 404/404/404
f 79/79/79 635/635/635 294/294/294
f 108/108/108 404/404/404 635/635/635
f 294/294/294 635/635/635 404/404/404
f 24/24/24 636/636/636 297/297/297
f 162/162/162 637/637/637 636/636/636
f 79/79/79 297/297/297 637/637/637
f 636/636/636 637/637/637 297/297/297
f 31/31/31 408/408/408 639/639/639
f 108/108/108 638/638/638 408/408/408
f 162/162/162 639/639/639 638/638/638
f 408/408/408 638/638/638 639/639/639
f 79/79/79 637/637/637 635/635/635
f 162/162/162 638/638/638 637/637/637
f 108/108/108 635/635/635 638/638/638
f 637/637/637 638/638/638 635/635/635
f 42/42/42 634/634/634 626/626/626
f 161/161/161 640/640/640 634/634/634
f 160/160/160 626/626/626 640/640/640
f 634/634/634 640/640/640 626/626/626
f 31/31/31 639/639/639 631/631/631
f 162/162/162 641/641/641 639/639/639
f 161/161/161 631/631/631 641/641/641
f 639/639/639 641/641/641 631/631/631
f 24/24/24 629/629/629 636/636/636
f 160/160/160 642/642/642 629/629/629
f 162/162/162 636/636/636 642/642/642
f 629/629/629 642/642/642 636/636/636
f 161/161/161 641/641/641 640/640/640
f 162/162/162 642/642/642 641/641/641
f 160/160/160 640/640/640 642/642/642
f 641/641/641 642/642/642 640/640/640
